  0
SECTION
  2
HEADER
  9
$ACADVER
  1
AC1009
  9
$DWGCODEPAGE
  3
ansi_1252
  9
$INSBASE
 10
0.0
 20
0.0
 30
0.0
  9
$EXTMIN
 10
0.0
 20
0.0
 30
0.0
  9
$EXTMAX
 10
720.0
 20
420.0
 30
0.0
  9
$LIMMIN
 10
0.0
 20
0.0
  9
$LIMMAX
 10
720.0
 20
420.0
  9
$ORTHOMODE
 70
     0
  9
$REGENMODE
 70
     1
  9
$FILLMODE
 70
     1
  9
$QTEXTMODE
 70
     0
  9
$MIRRTEXT
 70
     1
  9
$DRAGMODE
 70
     2
  9
$LTSCALE
 40
1.0
  9
$OSMODE
 70
    37
  9
$ATTMODE
 70
     1
  9
$TEXTSIZE
 40
3.5
  9
$TRACEWID
 40
1.0
  9
$TEXTSTYLE
  7
STANDARD
  9
$CLAYER
  8
0
  9
$CELTYPE
  6
BYLAYER
  9
$CECOLOR
 62
   256
  9
$DIMSCALE
 40
1.0
  9
$DIMASZ
 40
3.302
  9
$DIMEXO
 40
1.0
  9
$DIMDLI
 40
3.75
  9
$DIMRND
 40
0.0
  9
$DIMDLE
 40
0.0
  9
$DIMEXE
 40
1.0
  9
$DIMTP
 40
0.0
  9
$DIMTM
 40
0.0
  9
$DIMTXT
 40
3.5
  9
$DIMCEN
 40
2.5
  9
$DIMTSZ
 40
0.0
  9
$DIMTOL
 70
     0
  9
$DIMLIM
 70
     0
  9
$DIMTIH
 70
     1
  9
$DIMTOH
 70
     1
  9
$DIMSE1
 70
     0
  9
$DIMSE2
 70
     0
  9
$DIMTAD
 70
     1
  9
$DIMZIN
 70
     0
  9
$DIMBLK
  1

  9
$DIMASO
 70
     1
  9
$DIMSHO
 70
     1
  9
$DIMPOST
  1

  9
$DIMAPOST
  1

  9
$DIMALT
 70
     0
  9
$DIMALTD
 70
     3
  9
$DIMALTF
 40
0.0393700787
  9
$DIMLFAC
 40
1.0
  9
$DIMTOFL
 70
     1
  9
$DIMTVP
 40
0.0
  9
$DIMTIX
 70
     0
  9
$DIMSOXD
 70
     0
  9
$DIMSAH
 70
     0
  9
$DIMBLK1
  1

  9
$DIMBLK2
  1

  9
$DIMSTYLE
  2
ISO-25
  9
$DIMCLRD
 70
     0
  9
$DIMCLRE
 70
     0
  9
$DIMCLRT
 70
     0
  9
$DIMTFAC
 40
1.0
  9
$DIMGAP
 40
1.524
  9
$LUNITS
 70
     2
  9
$LUPREC
 70
     2
  9
$SKETCHINC
 40
1.0
  9
$FILLETRAD
 40
10.0
  9
$AUNITS
 70
     0
  9
$AUPREC
 70
     2
  9
$MENU
  1
.
  9
$ELEVATION
 40
0.0
  9
$PELEVATION
 40
0.0
  9
$THICKNESS
 40
0.0
  9
$LIMCHECK
 70
     0
  9
$CHAMFERA
 40
10.0
  9
$CHAMFERB
 40
10.0
  9
$SKPOLY
 70
     0
  9
$TDCREATE
 40
2456720.470765254
  9
$TDUPDATE
 40
2456720.470766725
  9
$TDINDWG
 40
0.0000000116
  9
$TDUSRTIMER
 40
0.0000000116
  9
$USRTIMER
 70
     1
  9
$ANGBASE
 50
0.0
  9
$ANGDIR
 70
     0
  9
$PDMODE
 70
     0
  9
$PDSIZE
 40
-1.0
  9
$PLINEWID
 40
0.0
  9
$COORDS
 70
     1
  9
$SPLFRAME
 70
     0
  9
$SPLINETYPE
 70
     6
  9
$SPLINESEGS
 70
     8
  9
$ATTDIA
 70
     0
  9
$ATTREQ
 70
     1
  9
$HANDLING
 70
     1
  9
$HANDSEED
  5
2FB
  9
$SURFTAB1
 70
     6
  9
$SURFTAB2
 70
     6
  9
$SURFTYPE
 70
     6
  9
$SURFU
 70
     6
  9
$SURFV
 70
     6
  9
$UCSNAME
  2

  9
$UCSORG
 10
0.0
 20
0.0
 30
0.0
  9
$UCSXDIR
 10
1.0
 20
0.0
 30
0.0
  9
$UCSYDIR
 10
0.0
 20
1.0
 30
0.0
  9
$PUCSNAME
  2

  9
$PUCSORG
 10
0.0
 20
0.0
 30
0.0
  9
$PUCSXDIR
 10
1.0
 20
0.0
 30
0.0
  9
$PUCSYDIR
 10
0.0
 20
1.0
 30
0.0
  9
$USERI1
 70
     0
  9
$USERI2
 70
     0
  9
$USERI3
 70
     0
  9
$USERI4
 70
     0
  9
$USERI5
 70
     0
  9
$USERR1
 40
0.0
  9
$USERR2
 40
0.0
  9
$USERR3
 40
0.0
  9
$USERR4
 40
0.0
  9
$USERR5
 40
0.0
  9
$WORLDVIEW
 70
     1
  9
$SHADEDGE
 70
     3
  9
$SHADEDIF
 70
    70
  9
$TILEMODE
 70
     1
  9
$MAXACTVP
 70
    64
  9
$PLIMCHECK
 70
     0
  9
$PEXTMIN
 10
1.0000000000E+20
 20
1.0000000000E+20
 30
1.0000000000E+20
  9
$PEXTMAX
 10
-1.0000000000E+20
 20
-1.0000000000E+20
 30
-1.0000000000E+20
  9
$PLIMMIN
 10
0.0
 20
0.0
  9
$PLIMMAX
 10
420.0
 20
297.0
  9
$UNITMODE
 70
     0
  9
$VISRETAIN
 70
     1
  9
$PLINEGEN
 70
     0
  9
$PSLTSCALE
 70
     1
  0
ENDSEC
  0
SECTION
  2
TABLES
  0
TABLE
  2
VPORT
 70
     1
  0
VPORT
  2
*ACTIVE
 70
     0
 10
0.0
 20
0.0
 11
1.0
 21
1.0
 12
360.0
 22
210.0
 13
0.0
 23
0.0
 14
10.0
 24
10.0
 15
10.0
 25
10.0
 16
0.0
 26
0.0
 36
1.0
 17
0.0
 27
0.0
 37
0.0
 40
420.0
 41
1.7142857143
 42
50.0
 43
0.0
 44
0.0
 50
0.0
 51
0.0
 71
     0
 72
  2000
 73
     1
 74
     3
 75
     0
 76
     0
 77
     0
 78
     0
  0
ENDTAB
  0
TABLE
  2
LTYPE
 70
     6
  0
LTYPE
  2
CONTINUOUS
 70
     0
  3
Solid line
 72
    65
 73
     0
 40
0.0
  0
LTYPE
  2
HIDDEN
 70
     0
  3
Hidden __ __ __ __ __ __ __ __ __ __ __ __ __ __
 72
    65
 73
     2
 40
1.905
 49
1.27
 49
-0.635
  0
LTYPE
  2
PHANTOM
 70
     0
  3
Phantom ______  __  __  ______  __  __  ______
 72
    65
 73
     6
 40
12.7
 49
6.35
 49
-1.27
 49
1.27
 49
-1.27
 49
1.27
 49
-1.27
  0
LTYPE
  2
CENTER
 70
     0
  3
Center ____ _ ____ _ ____ _ ____ _ ____ _ ____
 72
    65
 73
     4
 40
10.16
 49
6.35
 49
-1.27
 49
1.27
 49
-1.27
  0
LTYPE
  2
CENTERX2
 70
     0
  3
Center (2x) ________  __  ________  __  _____
 72
    65
 73
     4
 40
20.32
 49
12.7
 49
-2.54
 49
2.54
 49
-2.54
  0
LTYPE
  2
DOT2
 70
     0
  3
Dot (.5x) ........................................
 72
    65
 73
     2
 40
0.635
 49
0.0
 49
-0.635
  0
ENDTAB
  0
TABLE
  2
LAYER
 70
     1
  0
LAYER
  2
0
 70
     0
 62
     7
  6
CONTINUOUS
  0
ENDTAB
  0
TABLE
  2
STYLE
 70
     1
  0
STYLE
  2
STANDARD
 70
     0
 40
0.0
 41
1.0
 50
0.0
 71
     0
 42
3.5
  3
txt
  4

  0
ENDTAB
  0
TABLE
  2
VIEW
 70
     0
  0
ENDTAB
  0
TABLE
  2
UCS
 70
     0
  0
ENDTAB
  0
TABLE
  2
APPID
 70
     1
  0
APPID
  2
ACAD
 70
     0
  0
ENDTAB
  0
TABLE
  2
DIMSTYLE
 70
     1
  0
DIMSTYLE
  2
ISO-25
 70
     0
  3

  4

  5

  6

  7

 40
1.0
 41
2.5
 42
0.625
 43
3.75
 44
1.25
 45
0.0
 46
0.0
 47
0.0
 48
0.0
140
2.5
141
2.5
142
0.0
143
0.0393700787
144
1.0
145
0.0
146
1.0
147
0.625
 71
     0
 72
     0
 73
     0
 74
     0
 75
     0
 76
     0
 77
     1
 78
     8
170
     0
171
     3
172
     1
173
     0
174
     0
175
     0
176
     0
177
     0
178
     0
  0
ENDTAB
  0
ENDSEC
  0
SECTION
  2
BLOCKS
  0
BLOCK
  8
0
  2
$MODEL_SPACE
 70
     0
 10
0.0
 20
0.0
 30
0.0
  3
$MODEL_SPACE
  1

  0
ENDBLK
  5
21
  8
0
  0
BLOCK
 67
     1
  8
0
  2
$PAPER_SPACE
 70
     0
 10
0.0
 20
0.0
 30
0.0
  3
$PAPER_SPACE
  1

  0
ENDBLK
  5
1D
 67
     1
  8
0
  0
ENDSEC
  0
SECTION
  2
ENTITIES
  0
ARC
  5
44
  8
0
  6
CONTINUOUS
 62
     7
 10
203.8563445025
 20
280.4888630719
 30
0.0
 40
27.69684876514404
 50
139.9755835354
 51
168.5508428512
  0
ARC
  5
45
  8
0
  6
CONTINUOUS
 62
     7
 10
174.9892116183
 20
304.7322342456
 30
0.0
 40
9.999999999999998
 50
319.9755835354
 51
0.0
  0
LINE
  5
46
  8
0
  6
CONTINUOUS
 62
     7
 10
184.9892116183
 20
322.9580201446
 30
0.0
 11
184.9892116183
 21
304.7322342456
 31
0.0
  0
ARC
  5
47
  8
0
  6
CONTINUOUS
 62
     7
 10
174.9892116183
 20
322.9580201446
 30
0.0
 40
9.99999999999998
 50
0.0
 51
38.8641444974
  0
ARC
  5
48
  8
0
  6
CONTINUOUS
 62
     7
 10
207.143822523
 20
348.870313594
 30
0.0
 40
31.29607674159185
 50
192.8900636104
 51
218.8641444974
  0
ARC
  5
49
  8
0
  6
CONTINUOUS
 62
     7
 10
162.9892116183
 20
338.7656164671
 30
0.0
 40
14.00000000000001
 50
12.8900636104
 51
180.0
  0
LINE
  5
4A
  8
0
  6
CONTINUOUS
 62
     7
 10
148.9892116183
 20
288.7656164671
 30
0.0
 11
148.9892116183
 21
338.7656164671
 31
0.0
  0
ARC
  5
4B
  8
0
  6
CONTINUOUS
 62
     7
 10
162.9892116183
 20
288.7656164671
 30
0.0
 40
14.00000000000006
 50
180.0
 51
348.5508428512
  0
CIRCLE
  5
4C
  8
0
  6
CONTINUOUS
 62
     7
 10
115.4517116183
 20
343.8797779131
 30
0.0
 40
2.375
  0
CIRCLE
  5
4D
  8
0
  6
CONTINUOUS
 62
     7
 10
83.3267116183
 20
291.7797779131
 30
0.0
 40
2.375
  0
ARC
  5
4E
  8
0
  6
CONTINUOUS
 62
     7
 10
225.4439988518
 20
313.4786828155
 30
0.0
 40
102.2934665051861
 50
213.6766440167
 51
228.4963446098
  0
ARC
  5
4F
  8
0
  6
CONTINUOUS
 62
     7
 10
106.9892116183
 20
234.5489047856
 30
0.0
 40
40.04924134598824
 50
33.6766440167
 51
146.3233559833
  0
ARC
  5
50
  8
0
  6
CONTINUOUS
 62
     7
 10
-11.4655756153
 20
313.4786828155
 30
0.0
 40
102.2934665051892
 50
311.5036553902
 51
326.3233559833
  0
ARC
  5
51
  8
0
  6
CONTINUOUS
 62
     7
 10
49.6943354821
 20
244.3588648607
 30
0.0
 40
10.0
 50
230.4605220004
 51
311.5036553902
  0
ARC
  5
52
  8
0
  6
CONTINUOUS
 62
     7
 10
106.9892116183
 20
313.7656164671
 30
0.0
 40
100.0
 50
309.5394779996
 51
230.4605220004
  0
LINE
  5
53
  8
0
  6
CONTINUOUS
 62
     7
 10
64.9892116184
 20
338.765616467
 30
0.0
 11
64.9892116183
 21
288.765616467
 31
0.0
  0
ARC
  5
54
  8
0
  6
CONTINUOUS
 62
     7
 10
50.9892116183
 20
338.7656164671
 30
0.0
 40
14.00000000016582
 50
359.9999999999
 51
180.0000000002
  0
ARC
  5
55
  8
0
  6
CONTINUOUS
 62
     7
 10
17.6042847197
 20
343.6874666404
 30
0.0
 40
19.99999999987376
 50
315.4657141441
 51
345.7535932194
  0
ARC
  5
56
  8
0
  6
CONTINUOUS
 62
     7
 10
38.9892116183
 20
322.647388182
 30
0.0
 40
10.00000000012626
 50
135.4657141441
 51
180.0
  0
LINE
  5
57
  8
0
  6
CONTINUOUS
 62
     7
 10
28.9892116183
 20
304.8838447522
 30
0.0
 11
28.9892116183
 21
322.647388182
 31
0.0
  0
ARC
  5
58
  8
0
  6
CONTINUOUS
 62
     7
 10
38.9892116183
 20
304.8838447522
 30
0.0
 40
10.0
 50
180.0
 51
224.5342858559
  0
ARC
  5
59
  8
0
  6
CONTINUOUS
 62
     7
 10
17.6042847197
 20
283.8437662937
 30
0.0
 40
20.00000000000002
 50
14.2464067808
 51
44.5342858559
  0
ARC
  5
5A
  8
0
  6
CONTINUOUS
 62
     7
 10
50.9892116183
 20
288.7656164671
 30
0.0
 40
14.00000000008293
 50
179.9999999995
 51
359.9999999999
  0
CIRCLE
  5
5B
  8
0
  6
CONTINUOUS
 62
     7
 10
130.6517116183
 20
293.0797779131
 30
0.0
 40
2.375
  0
CIRCLE
  5
5C
  8
0
  6
CONTINUOUS
 62
     7
 10
87.5517116183
 20
343.8797779131
 30
0.0
 40
2.375
  0
LINE
  5
5D
  8
0
  6
CONTINUOUS
 62
     7
 10
147.4892116183
 20
272.0156164671
 30
0.0
 11
147.4892116183
 21
262.0156164671
 31
0.0
  0
LINE
  5
5E
  8
0
  6
CONTINUOUS
 62
     7
 10
144.4892116183
 20
272.0156164671
 30
0.0
 11
147.4892116183
 21
272.0156164671
 31
0.0
  0
LINE
  5
5F
  8
0
  6
CONTINUOUS
 62
     7
 10
144.4892116183
 20
262.0156164671
 30
0.0
 11
144.4892116183
 21
272.0156164671
 31
0.0
  0
LINE
  5
60
  8
0
  6
CONTINUOUS
 62
     7
 10
147.4892116183
 20
262.0156164671
 30
0.0
 11
144.4892116183
 21
262.0156164671
 31
0.0
  0
LINE
  5
61
  8
0
  6
CONTINUOUS
 62
     7
 10
144.4892116183
 20
282.0156164671
 30
0.0
 11
144.4892116183
 21
292.0156164671
 31
0.0
  0
LINE
  5
62
  8
0
  6
CONTINUOUS
 62
     7
 10
147.4892116183
 20
282.0156164671
 30
0.0
 11
144.4892116183
 21
282.0156164671
 31
0.0
  0
LINE
  5
63
  8
0
  6
CONTINUOUS
 62
     7
 10
147.4892116183
 20
292.0156164671
 30
0.0
 11
147.4892116183
 21
282.0156164671
 31
0.0
  0
LINE
  5
64
  8
0
  6
CONTINUOUS
 62
     7
 10
144.4892116183
 20
292.0156164671
 30
0.0
 11
147.4892116183
 21
292.0156164671
 31
0.0
  0
LINE
  5
65
  8
0
  6
CONTINUOUS
 62
     7
 10
144.4892116183
 20
308.7656164671
 30
0.0
 11
144.4892116183
 21
318.7656164671
 31
0.0
  0
LINE
  5
66
  8
0
  6
CONTINUOUS
 62
     7
 10
147.4892116183
 20
308.7656164671
 30
0.0
 11
144.4892116183
 21
308.7656164671
 31
0.0
  0
LINE
  5
67
  8
0
  6
CONTINUOUS
 62
     7
 10
147.4892116183
 20
318.7656164671
 30
0.0
 11
147.4892116183
 21
308.7656164671
 31
0.0
  0
LINE
  5
68
  8
0
  6
CONTINUOUS
 62
     7
 10
144.4892116183
 20
318.7656164671
 30
0.0
 11
147.4892116183
 21
318.7656164671
 31
0.0
  0
LINE
  5
69
  8
0
  6
CONTINUOUS
 62
     7
 10
144.4892116183
 20
335.5156164671
 30
0.0
 11
144.4892116183
 21
345.5156164671
 31
0.0
  0
LINE
  5
6A
  8
0
  6
CONTINUOUS
 62
     7
 10
147.4892116183
 20
335.5156164671
 30
0.0
 11
144.4892116183
 21
335.5156164671
 31
0.0
  0
LINE
  5
6B
  8
0
  6
CONTINUOUS
 62
     7
 10
147.4892116183
 20
345.5156164671
 30
0.0
 11
147.4892116183
 21
335.5156164671
 31
0.0
  0
LINE
  5
6C
  8
0
  6
CONTINUOUS
 62
     7
 10
144.4892116183
 20
345.5156164671
 30
0.0
 11
147.4892116183
 21
345.5156164671
 31
0.0
  0
LINE
  5
6D
  8
0
  6
CONTINUOUS
 62
     7
 10
144.4892116183
 20
355.5156164671
 30
0.0
 11
144.4892116183
 21
365.5156164671
 31
0.0
  0
LINE
  5
6E
  8
0
  6
CONTINUOUS
 62
     7
 10
147.4892116183
 20
355.5156164671
 30
0.0
 11
144.4892116183
 21
355.5156164671
 31
0.0
  0
LINE
  5
6F
  8
0
  6
CONTINUOUS
 62
     7
 10
147.4892116183
 20
365.5156164671
 30
0.0
 11
147.4892116183
 21
355.5156164671
 31
0.0
  0
LINE
  5
70
  8
0
  6
CONTINUOUS
 62
     7
 10
144.4892116183
 20
365.5156164671
 30
0.0
 11
147.4892116183
 21
365.5156164671
 31
0.0
  0
LINE
  5
71
  8
0
  6
CONTINUOUS
 62
     7
 10
124.4892116183
 20
372.5156164671
 30
0.0
 11
124.4892116183
 21
375.5156164671
 31
0.0
  0
LINE
  5
72
  8
0
  6
CONTINUOUS
 62
     7
 10
134.4892116183
 20
372.5156164671
 30
0.0
 11
124.4892116183
 21
372.5156164671
 31
0.0
  0
LINE
  5
73
  8
0
  6
CONTINUOUS
 62
     7
 10
134.4892116183
 20
375.5156164671
 30
0.0
 11
134.4892116183
 21
372.5156164671
 31
0.0
  0
LINE
  5
74
  8
0
  6
CONTINUOUS
 62
     7
 10
124.4892116183
 20
375.5156164671
 30
0.0
 11
134.4892116183
 21
375.5156164671
 31
0.0
  0
LINE
  5
75
  8
0
  6
CONTINUOUS
 62
     7
 10
101.9892116183
 20
372.5156164671
 30
0.0
 11
101.9892116183
 21
375.5156164671
 31
0.0
  0
LINE
  5
76
  8
0
  6
CONTINUOUS
 62
     7
 10
111.9892116183
 20
372.5156164671
 30
0.0
 11
101.9892116183
 21
372.5156164671
 31
0.0
  0
LINE
  5
77
  8
0
  6
CONTINUOUS
 62
     7
 10
111.9892116183
 20
375.5156164671
 30
0.0
 11
111.9892116183
 21
372.5156164671
 31
0.0
  0
LINE
  5
78
  8
0
  6
CONTINUOUS
 62
     7
 10
101.9892116183
 20
375.5156164671
 30
0.0
 11
111.9892116183
 21
375.5156164671
 31
0.0
  0
LINE
  5
79
  8
0
  6
CONTINUOUS
 62
     7
 10
79.4892116183
 20
372.5156164671
 30
0.0
 11
79.4892116183
 21
375.5156164671
 31
0.0
  0
LINE
  5
7A
  8
0
  6
CONTINUOUS
 62
     7
 10
89.4892116183
 20
372.5156164671
 30
0.0
 11
79.4892116183
 21
372.5156164671
 31
0.0
  0
LINE
  5
7B
  8
0
  6
CONTINUOUS
 62
     7
 10
89.4892116183
 20
375.5156164671
 30
0.0
 11
89.4892116183
 21
372.5156164671
 31
0.0
  0
LINE
  5
7C
  8
0
  6
CONTINUOUS
 62
     7
 10
79.4892116183
 20
375.5156164671
 30
0.0
 11
89.4892116183
 21
375.5156164671
 31
0.0
  0
LINE
  5
7D
  8
0
  6
CONTINUOUS
 62
     7
 10
66.4892116183
 20
355.5156164671
 30
0.0
 11
66.4892116183
 21
365.5156164671
 31
0.0
  0
LINE
  5
7E
  8
0
  6
CONTINUOUS
 62
     7
 10
69.4892116183
 20
355.5156164671
 30
0.0
 11
66.4892116183
 21
355.5156164671
 31
0.0
  0
LINE
  5
7F
  8
0
  6
CONTINUOUS
 62
     7
 10
69.4892116183
 20
365.5156164671
 30
0.0
 11
69.4892116183
 21
355.5156164671
 31
0.0
  0
LINE
  5
80
  8
0
  6
CONTINUOUS
 62
     7
 10
66.4892116183
 20
365.5156164671
 30
0.0
 11
69.4892116183
 21
365.5156164671
 31
0.0
  0
LINE
  5
81
  8
0
  6
CONTINUOUS
 62
     7
 10
66.4892116183
 20
335.5156164671
 30
0.0
 11
66.4892116183
 21
345.5156164671
 31
0.0
  0
LINE
  5
82
  8
0
  6
CONTINUOUS
 62
     7
 10
69.4892116183
 20
335.5156164671
 30
0.0
 11
66.4892116183
 21
335.5156164671
 31
0.0
  0
LINE
  5
83
  8
0
  6
CONTINUOUS
 62
     7
 10
69.4892116183
 20
345.5156164671
 30
0.0
 11
69.4892116183
 21
335.5156164671
 31
0.0
  0
LINE
  5
84
  8
0
  6
CONTINUOUS
 62
     7
 10
66.4892116183
 20
345.5156164671
 30
0.0
 11
69.4892116183
 21
345.5156164671
 31
0.0
  0
LINE
  5
85
  8
0
  6
CONTINUOUS
 62
     7
 10
66.4892116183
 20
262.0156164671
 30
0.0
 11
66.4892116183
 21
272.0156164671
 31
0.0
  0
LINE
  5
86
  8
0
  6
CONTINUOUS
 62
     7
 10
69.4892116183
 20
262.0156164671
 30
0.0
 11
66.4892116183
 21
262.0156164671
 31
0.0
  0
LINE
  5
87
  8
0
  6
CONTINUOUS
 62
     7
 10
69.4892116183
 20
272.0156164671
 30
0.0
 11
69.4892116183
 21
262.0156164671
 31
0.0
  0
LINE
  5
88
  8
0
  6
CONTINUOUS
 62
     7
 10
66.4892116183
 20
272.0156164671
 30
0.0
 11
69.4892116183
 21
272.0156164671
 31
0.0
  0
LINE
  5
89
  8
0
  6
CONTINUOUS
 62
     7
 10
66.4892116183
 20
282.0156164671
 30
0.0
 11
66.4892116183
 21
292.0156164671
 31
0.0
  0
LINE
  5
8A
  8
0
  6
CONTINUOUS
 62
     7
 10
69.4892116183
 20
282.0156164671
 30
0.0
 11
66.4892116183
 21
282.0156164671
 31
0.0
  0
LINE
  5
8B
  8
0
  6
CONTINUOUS
 62
     7
 10
69.4892116183
 20
292.0156164671
 30
0.0
 11
69.4892116183
 21
282.0156164671
 31
0.0
  0
LINE
  5
8C
  8
0
  6
CONTINUOUS
 62
     7
 10
66.4892116183
 20
292.0156164671
 30
0.0
 11
69.4892116183
 21
292.0156164671
 31
0.0
  0
LINE
  5
8D
  8
0
  6
CONTINUOUS
 62
     7
 10
66.4892116183
 20
308.7656164671
 30
0.0
 11
66.4892116183
 21
318.7656164671
 31
0.0
  0
LINE
  5
8E
  8
0
  6
CONTINUOUS
 62
     7
 10
69.4892116183
 20
308.7656164671
 30
0.0
 11
66.4892116183
 21
308.7656164671
 31
0.0
  0
LINE
  5
8F
  8
0
  6
CONTINUOUS
 62
     7
 10
69.4892116183
 20
318.7656164671
 30
0.0
 11
69.4892116183
 21
308.7656164671
 31
0.0
  0
LINE
  5
90
  8
0
  6
CONTINUOUS
 62
     7
 10
66.4892116183
 20
318.7656164671
 30
0.0
 11
69.4892116183
 21
318.7656164671
 31
0.0
  0
CIRCLE
  5
91
  8
0
  6
CONTINUOUS
 62
     7
 10
106.9892116183
 20
403.7656164671
 30
0.0
 40
2.0
  0
CIRCLE
  5
92
  8
0
  6
CONTINUOUS
 62
     7
 10
170.628821925
 20
377.4052267739
 30
0.0
 40
2.0
  0
CIRCLE
  5
93
  8
0
  6
CONTINUOUS
 62
     7
 10
196.9892116183
 20
313.7656164671
 30
0.0
 40
2.0
  0
CIRCLE
  5
94
  8
0
  6
CONTINUOUS
 62
     7
 10
170.6288219251
 20
250.1260061603
 30
0.0
 40
2.000000000000028
  0
CIRCLE
  5
95
  8
0
  6
CONTINUOUS
 62
     7
 10
43.3496013115
 20
250.1260061603
 30
0.0
 40
2.0
  0
CIRCLE
  5
96
  8
0
  6
CONTINUOUS
 62
     7
 10
16.9892116183
 20
313.7656164671
 30
0.0
 40
2.0
  0
CIRCLE
  5
97
  8
0
  6
CONTINUOUS
 62
     7
 10
43.3496013115
 20
377.4052267739
 30
0.0
 40
2.000000000000057
  0
CIRCLE
  5
98
  8
0
  6
CONTINUOUS
 62
     7
 10
90.4892116183
 20
276.2656164671
 30
0.0
 40
1.5
  0
CIRCLE
  5
99
  8
0
  6
CONTINUOUS
 62
     7
 10
117.9892116183
 20
331.2656164671
 30
0.0
 40
1.5
  0
ARC
  5
9A
  8
0
  6
CONTINUOUS
 62
     7
 10
121.9892116183
 20
388.7656164671
 30
0.0
 40
7.000000000000057
 50
270.0
 51
90.0
  0
LINE
  5
9B
  8
0
  6
CONTINUOUS
 62
     7
 10
91.9892116183
 20
395.7656164671
 30
0.0
 11
121.9892116183
 21
395.7656164671
 31
0.0
  0
ARC
  5
9C
  8
0
  6
CONTINUOUS
 62
     7
 10
91.9892116183
 20
388.7656164671
 30
0.0
 40
7.000000000000114
 50
90.0
 51
270.0
  0
LINE
  5
9D
  8
0
  6
CONTINUOUS
 62
     7
 10
121.9892116183
 20
381.7656164671
 30
0.0
 11
91.9892116183
 21
381.7656164671
 31
0.0
  0
CIRCLE
  5
9E
  8
0
  6
CONTINUOUS
 62
     7
 10
74.4892116183
 20
388.7656164671
 30
0.0
 40
4.0
  0
CIRCLE
  5
9F
  8
0
  6
CONTINUOUS
 62
     7
 10
139.4892116183
 20
388.7656164671
 30
0.0
 40
4.0
  0
CIRCLE
  5
A0
  8
0
  6
CONTINUOUS
 62
     7
 10
84.4892116183
 20
313.7656164671
 30
0.0
 40
10.0
  0
CIRCLE
  5
A1
  8
0
  6
CONTINUOUS
 62
     7
 10
129.4892116183
 20
313.7656164671
 30
0.0
 40
10.0
  0
CIRCLE
  5
A2
  8
0
  6
CONTINUOUS
 62
     7
 10
106.9892116183
 20
357.5156164671
 30
0.0
 40
10.0
  0
ARC
  5
A3
  8
0
  6
CONTINUOUS
 62
     7
 10
164.2840877544
 20
244.3588648607
 30
0.0
 40
9.999999999999984
 50
228.4963446098
 51
309.5394779996
  0
CIRCLE
  5
A4
  8
0
  6
CONTINUOUS
 62
     7
 10
313.8004149378
 20
401.8414937759
 30
0.0
 40
1.0
  0
CIRCLE
  5
A5
  8
0
  6
CONTINUOUS
 62
     7
 10
326.8004149378
 20
217.8414937759
 30
0.0
 40
1.0
  0
CIRCLE
  5
A6
  8
0
  6
CONTINUOUS
 62
     7
 10
248.3004149378
 20
297.8414937759
 30
0.0
 40
1.499999999999943
  0
CIRCLE
  5
A7
  8
0
  6
CONTINUOUS
 62
     7
 10
392.3004149378
 20
297.8414937759
 30
0.0
 40
1.5
  0
ARC
  5
A8
  8
0
  6
CONTINUOUS
 62
     7
 10
364.3004149378
 20
316.3414937759
 30
0.0
 40
1.0
 50
90.0
 51
180.0
  0
LINE
  5
A9
  8
0
  6
CONTINUOUS
 62
     7
 10
363.3004149378
 20
316.3414937759
 30
0.0
 11
363.3004149378
 21
303.3414937759
 31
0.0
  0
ARC
  5
AA
  8
0
  6
CONTINUOUS
 62
     7
 10
364.3004149378
 20
303.3414937759
 30
0.0
 40
1.0
 50
180.0
 51
270.0
  0
LINE
  5
AB
  8
0
  6
CONTINUOUS
 62
     7
 10
364.3004149378
 20
302.3414937759
 30
0.0
 11
365.3004149378
 21
302.3414937759
 31
0.0
  0
ARC
  5
AC
  8
0
  6
CONTINUOUS
 62
     7
 10
365.3004149378
 20
301.3414937759
 30
0.0
 40
1.0
 50
0.0
 51
90.0
  0
ARC
  5
AD
  8
0
  6
CONTINUOUS
 62
     7
 10
377.8004149378
 20
285.8414937759
 30
0.0
 40
11.5
 50
180.0
 51
0.0
  0
LINE
  5
AE
  8
0
  6
CONTINUOUS
 62
     7
 10
389.3004149378
 20
333.8414937759
 30
0.0
 11
389.3004149378
 21
285.8414937759
 31
0.0
  0
ARC
  5
AF
  8
0
  6
CONTINUOUS
 62
     7
 10
377.8004149378
 20
333.8414937759
 30
0.0
 40
11.5
 50
0.0
 51
180.0
  0
LINE
  5
B0
  8
0
  6
CONTINUOUS
 62
     7
 10
366.3004149378
 20
318.3414937759
 30
0.0
 11
366.3004149378
 21
333.8414937759
 31
0.0
  0
ARC
  5
B1
  8
0
  6
CONTINUOUS
 62
     7
 10
365.3004149378
 20
318.3414937759
 30
0.0
 40
1.0
 50
270.0
 51
0.0
  0
LINE
  5
B2
  8
0
  6
CONTINUOUS
 62
     7
 10
365.3004149378
 20
317.3414937759
 30
0.0
 11
364.3004149378
 21
317.3414937759
 31
0.0
  0
CIRCLE
  5
B3
  8
0
  6
CONTINUOUS
 62
     7
 10
320.3004149378
 20
309.8414937759
 30
0.0
 40
100.0
  0
ARC
  5
B4
  8
0
  6
CONTINUOUS
 62
     7
 10
276.3004149378
 20
303.3414937759
 30
0.0
 40
1.0
 50
270.0
 51
0.0
  0
LINE
  5
B5
  8
0
  6
CONTINUOUS
 62
     7
 10
277.3004149378
 20
303.3414937759
 30
0.0
 11
277.3004149378
 21
316.3414937759
 31
0.0
  0
ARC
  5
B6
  8
0
  6
CONTINUOUS
 62
     7
 10
276.3004149378
 20
316.3414937759
 30
0.0
 40
1.0
 50
0.0
 51
90.0
  0
LINE
  5
B7
  8
0
  6
CONTINUOUS
 62
     7
 10
276.3004149378
 20
317.3414937759
 30
0.0
 11
275.3004149378
 21
317.3414937759
 31
0.0
  0
ARC
  5
B8
  8
0
  6
CONTINUOUS
 62
     7
 10
275.3004149378
 20
318.3414937759
 30
0.0
 40
1.0
 50
180.0
 51
270.0
  0
ARC
  5
B9
  8
0
  6
CONTINUOUS
 62
     7
 10
262.8004149378
 20
333.8414937759
 30
0.0
 40
11.5
 50
0.0
 51
180.0
  0
LINE
  5
BA
  8
0
  6
CONTINUOUS
 62
     7
 10
251.3004149378
 20
285.8414937759
 30
0.0
 11
251.3004149378
 21
333.8414937759
 31
0.0
  0
ARC
  5
BB
  8
0
  6
CONTINUOUS
 62
     7
 10
262.8004149378
 20
285.8414937759
 30
0.0
 40
11.5
 50
180.0
 51
0.0
  0
LINE
  5
BC
  8
0
  6
CONTINUOUS
 62
     7
 10
274.3004149378
 20
301.3414937759
 30
0.0
 11
274.3004149378
 21
285.8414937759
 31
0.0
  0
ARC
  5
BD
  8
0
  6
CONTINUOUS
 62
     7
 10
275.3004149378
 20
301.3414937759
 30
0.0
 40
1.0
 50
90.0
 51
180.0
  0
LINE
  5
BE
  8
0
  6
CONTINUOUS
 62
     7
 10
275.3004149378
 20
302.3414937759
 30
0.0
 11
276.3004149378
 21
302.3414937759
 31
0.0
  0
CIRCLE
  5
BF
  8
0
  6
CONTINUOUS
 62
     7
 10
392.3004149378
 20
321.8414937759
 30
0.0
 40
1.5
  0
CIRCLE
  5
C0
  8
0
  6
CONTINUOUS
 62
     7
 10
248.3004149378
 20
321.8414937759
 30
0.0
 40
1.500000000000057
  0
CIRCLE
  5
C1
  8
0
  6
CONTINUOUS
 62
     7
 10
313.8004149378
 20
217.8414937759
 30
0.0
 40
1.0
  0
CIRCLE
  5
C2
  8
0
  6
CONTINUOUS
 62
     7
 10
326.8004149378
 20
401.8414937759
 30
0.0
 40
1.0
  0
CIRCLE
  5
C3
  8
0
  6
CONTINUOUS
 62
     7
 10
290.1204149378
 20
239.8414937759
 30
0.0
 40
1.0
  0
CIRCLE
  5
C4
  8
0
  6
CONTINUOUS
 62
     7
 10
359.9704149378
 20
239.8414937759
 30
0.0
 40
1.0
  0
CIRCLE
  5
C5
  8
0
  6
CONTINUOUS
 62
     7
 10
299.6504149378
 20
239.8414937759
 30
0.0
 40
1.0
  0
CIRCLE
  5
C6
  8
0
  6
CONTINUOUS
 62
     7
 10
350.4504149378
 20
239.8414937759
 30
0.0
 40
1.0
  0
CIRCLE
  5
C7
  8
0
  6
CONTINUOUS
 62
     7
 10
285.3754149378
 20
239.8414937759
 30
0.0
 40
1.0
  0
CIRCLE
  5
C8
  8
0
  6
CONTINUOUS
 62
     7
 10
294.9004149378
 20
239.8414937759
 30
0.0
 40
1.0
  0
CIRCLE
  5
C9
  8
0
  6
CONTINUOUS
 62
     7
 10
355.2254149378
 20
239.8414937759
 30
0.0
 40
1.0
  0
CIRCLE
  5
CA
  8
0
  6
CONTINUOUS
 62
     7
 10
345.7004149378
 20
239.8414937759
 30
0.0
 40
1.0
  0
ARC
  5
CB
  8
0
  6
CONTINUOUS
 62
     7
 10
337.6364649231
 20
238.8414937759
 30
0.0
 40
5.000000000000028
 50
270.0
 51
90.0
  0
LINE
  5
CC
  8
0
  6
CONTINUOUS
 62
     7
 10
337.6364649231
 20
243.8414937759
 30
0.0
 11
307.6364649231
 21
243.8414937759
 31
0.0
  0
ARC
  5
CD
  8
0
  6
CONTINUOUS
 62
     7
 10
307.6364649231
 20
238.8414937759
 30
0.0
 40
5.000000000000028
 50
90.0
 51
270.0
  0
LINE
  5
CE
  8
0
  6
CONTINUOUS
 62
     7
 10
307.6364649231
 20
233.8414937759
 30
0.0
 11
337.6364649231
 21
233.8414937759
 31
0.0
  0
CIRCLE
  5
CF
  8
0
  6
CONTINUOUS
 62
     7
 10
245.2361485732
 20
249.3784278166
 30
0.0
 40
1.500000000000028
  0
CIRCLE
  5
D0
  8
0
  6
CONTINUOUS
 62
     7
 10
267.1816639043
 20
240.2463767409
 30
0.0
 40
1.5
  0
CIRCLE
  5
D1
  8
0
  6
CONTINUOUS
 62
     7
 10
373.4191659712
 20
240.2463767409
 30
0.0
 40
1.5
  0
CIRCLE
  5
D2
  8
0
  6
CONTINUOUS
 62
     7
 10
395.3646813024
 20
249.3784278166
 30
0.0
 40
1.500000000000028
  0
CIRCLE
  5
D3
  8
0
  6
CONTINUOUS
 62
     7
 10
395.3646813024
 20
370.3045597353
 30
0.0
 40
1.5
  0
CIRCLE
  5
D4
  8
0
  6
CONTINUOUS
 62
     7
 10
373.4191659712
 20
379.436610811
 30
0.0
 40
1.5
  0
CIRCLE
  5
D5
  8
0
  6
CONTINUOUS
 62
     7
 10
267.1816639043
 20
379.436610811
 30
0.0
 40
1.5
  0
CIRCLE
  5
D6
  8
0
  6
CONTINUOUS
 62
     7
 10
245.2361485732
 20
370.3045597353
 30
0.0
 40
1.5
  0
LINE
  5
D7
  8
0
  6
CONTINUOUS
 62
     7
 10
282.8004149378
 20
258.0914937759
 30
0.0
 11
282.8004149378
 21
268.0914937759
 31
0.0
  0
LINE
  5
D8
  8
0
  6
CONTINUOUS
 62
     7
 10
282.8004149378
 20
268.0914937759
 30
0.0
 11
279.8004149378
 21
268.0914937759
 31
0.0
  0
LINE
  5
D9
  8
0
  6
CONTINUOUS
 62
     7
 10
279.8004149378
 20
268.0914937759
 30
0.0
 11
279.8004149378
 21
258.0914937759
 31
0.0
  0
LINE
  5
DA
  8
0
  6
CONTINUOUS
 62
     7
 10
279.8004149378
 20
258.0914937759
 30
0.0
 11
282.8004149378
 21
258.0914937759
 31
0.0
  0
LINE
  5
DB
  8
0
  6
CONTINUOUS
 62
     7
 10
279.8004149378
 20
288.0914937759
 30
0.0
 11
279.8004149378
 21
278.0914937759
 31
0.0
  0
LINE
  5
DC
  8
0
  6
CONTINUOUS
 62
     7
 10
279.8004149378
 20
278.0914937759
 30
0.0
 11
282.8004149378
 21
278.0914937759
 31
0.0
  0
LINE
  5
DD
  8
0
  6
CONTINUOUS
 62
     7
 10
282.8004149378
 20
278.0914937759
 30
0.0
 11
282.8004149378
 21
288.0914937759
 31
0.0
  0
LINE
  5
DE
  8
0
  6
CONTINUOUS
 62
     7
 10
282.8004149378
 20
288.0914937759
 30
0.0
 11
279.8004149378
 21
288.0914937759
 31
0.0
  0
LINE
  5
DF
  8
0
  6
CONTINUOUS
 62
     7
 10
279.8004149378
 20
314.8414937759
 30
0.0
 11
279.8004149378
 21
304.8414937759
 31
0.0
  0
LINE
  5
E0
  8
0
  6
CONTINUOUS
 62
     7
 10
279.8004149378
 20
304.8414937759
 30
0.0
 11
282.8004149378
 21
304.8414937759
 31
0.0
  0
LINE
  5
E1
  8
0
  6
CONTINUOUS
 62
     7
 10
282.8004149378
 20
304.8414937759
 30
0.0
 11
282.8004149378
 21
314.8414937759
 31
0.0
  0
LINE
  5
E2
  8
0
  6
CONTINUOUS
 62
     7
 10
282.8004149378
 20
314.8414937759
 30
0.0
 11
279.8004149378
 21
314.8414937759
 31
0.0
  0
LINE
  5
E3
  8
0
  6
CONTINUOUS
 62
     7
 10
279.8004149378
 20
341.5914937759
 30
0.0
 11
279.8004149378
 21
331.5914937759
 31
0.0
  0
LINE
  5
E4
  8
0
  6
CONTINUOUS
 62
     7
 10
279.8004149378
 20
331.5914937759
 30
0.0
 11
282.8004149378
 21
331.5914937759
 31
0.0
  0
LINE
  5
E5
  8
0
  6
CONTINUOUS
 62
     7
 10
282.8004149378
 20
331.5914937759
 30
0.0
 11
282.8004149378
 21
341.5914937759
 31
0.0
  0
LINE
  5
E6
  8
0
  6
CONTINUOUS
 62
     7
 10
282.8004149378
 20
341.5914937759
 30
0.0
 11
279.8004149378
 21
341.5914937759
 31
0.0
  0
LINE
  5
E7
  8
0
  6
CONTINUOUS
 62
     7
 10
282.8004149378
 20
351.5914937759
 30
0.0
 11
282.8004149378
 21
361.5914937759
 31
0.0
  0
LINE
  5
E8
  8
0
  6
CONTINUOUS
 62
     7
 10
282.8004149378
 20
361.5914937759
 30
0.0
 11
279.8004149378
 21
361.5914937759
 31
0.0
  0
LINE
  5
E9
  8
0
  6
CONTINUOUS
 62
     7
 10
279.8004149378
 20
351.5914937759
 30
0.0
 11
282.8004149378
 21
351.5914937759
 31
0.0
  0
LINE
  5
EA
  8
0
  6
CONTINUOUS
 62
     7
 10
357.8004149378
 20
361.5914937759
 30
0.0
 11
357.8004149378
 21
351.5914937759
 31
0.0
  0
LINE
  5
EB
  8
0
  6
CONTINUOUS
 62
     7
 10
357.8004149378
 20
351.5914937759
 30
0.0
 11
360.8004149378
 21
351.5914937759
 31
0.0
  0
LINE
  5
EC
  8
0
  6
CONTINUOUS
 62
     7
 10
360.8004149378
 20
351.5914937759
 30
0.0
 11
360.8004149378
 21
361.5914937759
 31
0.0
  0
LINE
  5
ED
  8
0
  6
CONTINUOUS
 62
     7
 10
360.8004149378
 20
361.5914937759
 30
0.0
 11
357.8004149378
 21
361.5914937759
 31
0.0
  0
LINE
  5
EE
  8
0
  6
CONTINUOUS
 62
     7
 10
357.8004149378
 20
341.5914937759
 30
0.0
 11
357.8004149378
 21
331.5914937759
 31
0.0
  0
LINE
  5
EF
  8
0
  6
CONTINUOUS
 62
     7
 10
357.8004149378
 20
331.5914937759
 30
0.0
 11
360.8004149378
 21
331.5914937759
 31
0.0
  0
LINE
  5
F0
  8
0
  6
CONTINUOUS
 62
     7
 10
360.8004149378
 20
331.5914937759
 30
0.0
 11
360.8004149378
 21
341.5914937759
 31
0.0
  0
LINE
  5
F1
  8
0
  6
CONTINUOUS
 62
     7
 10
360.8004149378
 20
341.5914937759
 30
0.0
 11
357.8004149378
 21
341.5914937759
 31
0.0
  0
LINE
  5
F2
  8
0
  6
CONTINUOUS
 62
     7
 10
357.8004149378
 20
314.8414937759
 30
0.0
 11
357.8004149378
 21
304.8414937759
 31
0.0
  0
LINE
  5
F3
  8
0
  6
CONTINUOUS
 62
     7
 10
357.8004149378
 20
304.8414937759
 30
0.0
 11
360.8004149378
 21
304.8414937759
 31
0.0
  0
LINE
  5
F4
  8
0
  6
CONTINUOUS
 62
     7
 10
360.8004149378
 20
304.8414937759
 30
0.0
 11
360.8004149378
 21
314.8414937759
 31
0.0
  0
LINE
  5
F5
  8
0
  6
CONTINUOUS
 62
     7
 10
360.8004149378
 20
314.8414937759
 30
0.0
 11
357.8004149378
 21
314.8414937759
 31
0.0
  0
LINE
  5
F6
  8
0
  6
CONTINUOUS
 62
     7
 10
357.8004149378
 20
288.0914937759
 30
0.0
 11
357.8004149378
 21
278.0914937759
 31
0.0
  0
LINE
  5
F7
  8
0
  6
CONTINUOUS
 62
     7
 10
357.8004149378
 20
278.0914937759
 30
0.0
 11
360.8004149378
 21
278.0914937759
 31
0.0
  0
LINE
  5
F8
  8
0
  6
CONTINUOUS
 62
     7
 10
360.8004149378
 20
278.0914937759
 30
0.0
 11
360.8004149378
 21
288.0914937759
 31
0.0
  0
LINE
  5
F9
  8
0
  6
CONTINUOUS
 62
     7
 10
360.8004149378
 20
288.0914937759
 30
0.0
 11
357.8004149378
 21
288.0914937759
 31
0.0
  0
LINE
  5
FA
  8
0
  6
CONTINUOUS
 62
     7
 10
357.8004149378
 20
268.0914937759
 30
0.0
 11
357.8004149378
 21
258.0914937759
 31
0.0
  0
LINE
  5
FB
  8
0
  6
CONTINUOUS
 62
     7
 10
357.8004149378
 20
258.0914937759
 30
0.0
 11
360.8004149378
 21
258.0914937759
 31
0.0
  0
LINE
  5
FC
  8
0
  6
CONTINUOUS
 62
     7
 10
360.8004149378
 20
258.0914937759
 30
0.0
 11
360.8004149378
 21
268.0914937759
 31
0.0
  0
LINE
  5
FD
  8
0
  6
CONTINUOUS
 62
     7
 10
360.8004149378
 20
268.0914937759
 30
0.0
 11
357.8004149378
 21
268.0914937759
 31
0.0
  0
LINE
  5
FE
  8
0
  6
CONTINUOUS
 62
     7
 10
347.8004149378
 20
251.0914937759
 30
0.0
 11
337.8004149378
 21
251.0914937759
 31
0.0
  0
LINE
  5
FF
  8
0
  6
CONTINUOUS
 62
     7
 10
337.8004149378
 20
251.0914937759
 30
0.0
 11
337.8004149378
 21
248.0914937759
 31
0.0
  0
LINE
  5
100
  8
0
  6
CONTINUOUS
 62
     7
 10
337.8004149378
 20
248.0914937759
 30
0.0
 11
347.8004149378
 21
248.0914937759
 31
0.0
  0
LINE
  5
101
  8
0
  6
CONTINUOUS
 62
     7
 10
347.8004149378
 20
248.0914937759
 30
0.0
 11
347.8004149378
 21
251.0914937759
 31
0.0
  0
LINE
  5
102
  8
0
  6
CONTINUOUS
 62
     7
 10
325.3004149378
 20
251.0914937759
 30
0.0
 11
315.3004149378
 21
251.0914937759
 31
0.0
  0
LINE
  5
103
  8
0
  6
CONTINUOUS
 62
     7
 10
315.3004149378
 20
251.0914937759
 30
0.0
 11
315.3004149378
 21
248.0914937759
 31
0.0
  0
LINE
  5
104
  8
0
  6
CONTINUOUS
 62
     7
 10
315.3004149378
 20
248.0914937759
 30
0.0
 11
325.3004149378
 21
248.0914937759
 31
0.0
  0
LINE
  5
105
  8
0
  6
CONTINUOUS
 62
     7
 10
325.3004149378
 20
248.0914937759
 30
0.0
 11
325.3004149378
 21
251.0914937759
 31
0.0
  0
LINE
  5
106
  8
0
  6
CONTINUOUS
 62
     7
 10
302.8004149378
 20
251.0914937759
 30
0.0
 11
292.8004149378
 21
251.0914937759
 31
0.0
  0
LINE
  5
107
  8
0
  6
CONTINUOUS
 62
     7
 10
292.8004149378
 20
251.0914937759
 30
0.0
 11
292.8004149378
 21
248.0914937759
 31
0.0
  0
LINE
  5
108
  8
0
  6
CONTINUOUS
 62
     7
 10
292.8004149378
 20
248.0914937759
 30
0.0
 11
302.8004149378
 21
248.0914937759
 31
0.0
  0
LINE
  5
109
  8
0
  6
CONTINUOUS
 62
     7
 10
302.8004149378
 20
248.0914937759
 30
0.0
 11
302.8004149378
 21
251.0914937759
 31
0.0
  0
CIRCLE
  5
10A
  8
0
  6
CONTINUOUS
 62
     7
 10
297.8004149378
 20
309.8414937759
 30
0.0
 40
10.0
  0
CIRCLE
  5
10B
  8
0
  6
CONTINUOUS
 62
     7
 10
342.8004149378
 20
309.8414937759
 30
0.0
 40
10.0
  0
CIRCLE
  5
10C
  8
0
  6
CONTINUOUS
 62
     7
 10
320.3004149378
 20
266.0914937759
 30
0.0
 40
10.0
  0
LINE
  5
10D
  8
0
  6
CONTINUOUS
 62
     7
 10
279.8004149378
 20
361.5914937759
 30
0.0
 11
279.8004149378
 21
351.5914937759
 31
0.0
  0
LINE
  5
10E
  8
0
  6
CONTINUOUS
 62
     7
 10
274.3004149378
 20
333.8414937759
 30
0.0
 11
274.3004149378
 21
318.3414937759
 31
0.0
  0
LINE
  5
10F
  8
0
  6
CONTINUOUS
 62
     7
 10
366.3004149378
 20
285.8414937759
 30
0.0
 11
366.3004149378
 21
301.3414937759
 31
0.0
  0
LINE
  5
110
  8
0
  6
CONTINUOUS
 62
     7
 10
212.144813278
 20
236.9842323651
 30
0.0
 11
212.144813278
 21
228.9842323651
 31
0.0
  0
LINE
  5
111
  8
0
  6
CONTINUOUS
 62
     7
 10
212.144813278
 20
228.9842323651
 30
0.0
 11
210.894813278
 21
228.9842323651
 31
0.0
  0
LINE
  5
112
  8
0
  6
CONTINUOUS
 62
     7
 10
210.894813278
 20
228.9842323651
 30
0.0
 11
210.894813278
 21
226.4842323651
 31
0.0
  0
LINE
  5
113
  8
0
  6
CONTINUOUS
 62
     7
 10
210.894813278
 20
226.4842323651
 30
0.0
 11
212.144813278
 21
226.4842323651
 31
0.0
  0
LINE
  5
114
  8
0
  6
CONTINUOUS
 62
     7
 10
212.144813278
 20
226.4842323651
 30
0.0
 11
212.144813278
 21
224.4842323651
 31
0.0
  0
LINE
  5
115
  8
0
  6
CONTINUOUS
 62
     7
 10
212.144813278
 20
224.4842323651
 30
0.0
 11
215.144813278
 21
224.4842323651
 31
0.0
  0
LINE
  5
116
  8
0
  6
CONTINUOUS
 62
     7
 10
215.144813278
 20
224.4842323651
 30
0.0
 11
215.144813278
 21
226.4842323651
 31
0.0
  0
LINE
  5
117
  8
0
  6
CONTINUOUS
 62
     7
 10
215.144813278
 20
226.4842323651
 30
0.0
 11
216.394813278
 21
226.4842323651
 31
0.0
  0
LINE
  5
118
  8
0
  6
CONTINUOUS
 62
     7
 10
216.394813278
 20
226.4842323651
 30
0.0
 11
216.394813278
 21
228.9842323651
 31
0.0
  0
LINE
  5
119
  8
0
  6
CONTINUOUS
 62
     7
 10
216.394813278
 20
228.9842323651
 30
0.0
 11
215.144813278
 21
228.9842323651
 31
0.0
  0
LINE
  5
11A
  8
0
  6
CONTINUOUS
 62
     7
 10
215.144813278
 20
228.9842323651
 30
0.0
 11
215.144813278
 21
236.9842323651
 31
0.0
  0
LINE
  5
11B
  8
0
  6
CONTINUOUS
 62
     7
 10
215.144813278
 20
201.3842323651
 30
0.0
 11
215.144813278
 21
209.3842323651
 31
0.0
  0
LINE
  5
11C
  8
0
  6
CONTINUOUS
 62
     7
 10
215.144813278
 20
209.3842323651
 30
0.0
 11
216.394813278
 21
209.3842323651
 31
0.0
  0
LINE
  5
11D
  8
0
  6
CONTINUOUS
 62
     7
 10
216.394813278
 20
209.3842323651
 30
0.0
 11
216.394813278
 21
211.8842323651
 31
0.0
  0
LINE
  5
11E
  8
0
  6
CONTINUOUS
 62
     7
 10
216.394813278
 20
211.8842323651
 30
0.0
 11
215.144813278
 21
211.8842323651
 31
0.0
  0
LINE
  5
11F
  8
0
  6
CONTINUOUS
 62
     7
 10
215.144813278
 20
211.8842323651
 30
0.0
 11
215.144813278
 21
213.8842323651
 31
0.0
  0
LINE
  5
120
  8
0
  6
CONTINUOUS
 62
     7
 10
215.144813278
 20
213.8842323651
 30
0.0
 11
212.144813278
 21
213.8842323651
 31
0.0
  0
LINE
  5
121
  8
0
  6
CONTINUOUS
 62
     7
 10
212.144813278
 20
213.8842323651
 30
0.0
 11
212.144813278
 21
211.8842323651
 31
0.0
  0
LINE
  5
122
  8
0
  6
CONTINUOUS
 62
     7
 10
212.144813278
 20
211.8842323651
 30
0.0
 11
210.894813278
 21
211.8842323651
 31
0.0
  0
LINE
  5
123
  8
0
  6
CONTINUOUS
 62
     7
 10
210.894813278
 20
211.8842323651
 30
0.0
 11
210.894813278
 21
209.3842323651
 31
0.0
  0
LINE
  5
124
  8
0
  6
CONTINUOUS
 62
     7
 10
210.894813278
 20
209.3842323651
 30
0.0
 11
212.144813278
 21
209.3842323651
 31
0.0
  0
LINE
  5
125
  8
0
  6
CONTINUOUS
 62
     7
 10
212.144813278
 20
209.3842323651
 30
0.0
 11
212.144813278
 21
201.3842323651
 31
0.0
  0
LINE
  5
126
  8
0
  6
CONTINUOUS
 62
     7
 10
173.144813278
 20
209.1842323651
 30
0.0
 11
176.144813278
 21
209.1842323651
 31
0.0
  0
LINE
  5
127
  8
0
  6
CONTINUOUS
 62
     7
 10
173.144813278
 20
214.1842323651
 30
0.0
 11
173.144813278
 21
209.1842323651
 31
0.0
  0
LINE
  5
128
  8
0
  6
CONTINUOUS
 62
     7
 10
176.144813278
 20
214.1842323651
 30
0.0
 11
173.144813278
 21
214.1842323651
 31
0.0
  0
LINE
  5
129
  8
0
  6
CONTINUOUS
 62
     7
 10
176.144813278
 20
224.1842323651
 30
0.0
 11
176.144813278
 21
214.1842323651
 31
0.0
  0
LINE
  5
12A
  8
0
  6
CONTINUOUS
 62
     7
 10
173.144813278
 20
224.1842323651
 30
0.0
 11
176.144813278
 21
224.1842323651
 31
0.0
  0
LINE
  5
12B
  8
0
  6
CONTINUOUS
 62
     7
 10
173.144813278
 20
229.1842323651
 30
0.0
 11
173.144813278
 21
224.1842323651
 31
0.0
  0
LINE
  5
12C
  8
0
  6
CONTINUOUS
 62
     7
 10
176.144813278
 20
229.1842323651
 30
0.0
 11
173.144813278
 21
229.1842323651
 31
0.0
  0
LINE
  5
12D
  8
0
  6
CONTINUOUS
 62
     7
 10
176.144813278
 20
234.1842323651
 30
0.0
 11
176.144813278
 21
229.1842323651
 31
0.0
  0
LINE
  5
12E
  8
0
  6
CONTINUOUS
 62
     7
 10
186.144813278
 20
234.1842323651
 30
0.0
 11
176.144813278
 21
234.1842323651
 31
0.0
  0
LINE
  5
12F
  8
0
  6
CONTINUOUS
 62
     7
 10
186.144813278
 20
236.9842323651
 30
0.0
 11
186.144813278
 21
234.1842323651
 31
0.0
  0
LINE
  5
130
  8
0
  6
CONTINUOUS
 62
     7
 10
196.144813278
 20
236.9842323651
 30
0.0
 11
186.144813278
 21
236.9842323651
 31
0.0
  0
LINE
  5
131
  8
0
  6
CONTINUOUS
 62
     7
 10
196.144813278
 20
234.1842323651
 30
0.0
 11
196.144813278
 21
236.9842323651
 31
0.0
  0
LINE
  5
132
  8
0
  6
CONTINUOUS
 62
     7
 10
208.644813278
 20
234.1842323651
 30
0.0
 11
196.144813278
 21
234.1842323651
 31
0.0
  0
LINE
  5
133
  8
0
  6
CONTINUOUS
 62
     7
 10
208.644813278
 20
236.9842323651
 30
0.0
 11
208.644813278
 21
234.1842323651
 31
0.0
  0
LINE
  5
134
  8
0
  6
CONTINUOUS
 62
     7
 10
218.644813278
 20
236.9842323651
 30
0.0
 11
215.144813278
 21
236.9842323651
 31
0.0
  0
LINE
  5
135
  8
0
  6
CONTINUOUS
 62
     7
 10
218.644813278
 20
234.1842323651
 30
0.0
 11
218.644813278
 21
236.9842323651
 31
0.0
  0
LINE
  5
136
  8
0
  6
CONTINUOUS
 62
     7
 10
231.144813278
 20
234.1842323651
 30
0.0
 11
218.644813278
 21
234.1842323651
 31
0.0
  0
LINE
  5
137
  8
0
  6
CONTINUOUS
 62
     7
 10
231.144813278
 20
236.9842323651
 30
0.0
 11
231.144813278
 21
234.1842323651
 31
0.0
  0
LINE
  5
138
  8
0
  6
CONTINUOUS
 62
     7
 10
241.144813278
 20
236.9842323651
 30
0.0
 11
231.144813278
 21
236.9842323651
 31
0.0
  0
LINE
  5
139
  8
0
  6
CONTINUOUS
 62
     7
 10
241.144813278
 20
234.1842323651
 30
0.0
 11
241.144813278
 21
236.9842323651
 31
0.0
  0
LINE
  5
13A
  8
0
  6
CONTINUOUS
 62
     7
 10
251.144813278
 20
234.1842323651
 30
0.0
 11
241.144813278
 21
234.1842323651
 31
0.0
  0
LINE
  5
13B
  8
0
  6
CONTINUOUS
 62
     7
 10
251.144813278
 20
229.1842323651
 30
0.0
 11
251.144813278
 21
234.1842323651
 31
0.0
  0
LINE
  5
13C
  8
0
  6
CONTINUOUS
 62
     7
 10
254.144813278
 20
229.1842323651
 30
0.0
 11
251.144813278
 21
229.1842323651
 31
0.0
  0
LINE
  5
13D
  8
0
  6
CONTINUOUS
 62
     7
 10
254.144813278
 20
224.1842323651
 30
0.0
 11
254.144813278
 21
229.1842323651
 31
0.0
  0
LINE
  5
13E
  8
0
  6
CONTINUOUS
 62
     7
 10
251.144813278
 20
224.1842323651
 30
0.0
 11
254.144813278
 21
224.1842323651
 31
0.0
  0
LINE
  5
13F
  8
0
  6
CONTINUOUS
 62
     7
 10
251.144813278
 20
214.1842323651
 30
0.0
 11
251.144813278
 21
224.1842323651
 31
0.0
  0
LINE
  5
140
  8
0
  6
CONTINUOUS
 62
     7
 10
254.144813278
 20
214.1842323651
 30
0.0
 11
251.144813278
 21
214.1842323651
 31
0.0
  0
LINE
  5
141
  8
0
  6
CONTINUOUS
 62
     7
 10
254.144813278
 20
209.1842323651
 30
0.0
 11
254.144813278
 21
214.1842323651
 31
0.0
  0
LINE
  5
142
  8
0
  6
CONTINUOUS
 62
     7
 10
251.144813278
 20
209.1842323651
 30
0.0
 11
254.144813278
 21
209.1842323651
 31
0.0
  0
LINE
  5
143
  8
0
  6
CONTINUOUS
 62
     7
 10
251.144813278
 20
204.1842323651
 30
0.0
 11
251.144813278
 21
209.1842323651
 31
0.0
  0
LINE
  5
144
  8
0
  6
CONTINUOUS
 62
     7
 10
241.144813278
 20
204.1842323651
 30
0.0
 11
251.144813278
 21
204.1842323651
 31
0.0
  0
LINE
  5
145
  8
0
  6
CONTINUOUS
 62
     7
 10
241.144813278
 20
201.3842323651
 30
0.0
 11
241.144813278
 21
204.1842323651
 31
0.0
  0
LINE
  5
146
  8
0
  6
CONTINUOUS
 62
     7
 10
231.144813278
 20
201.3842323651
 30
0.0
 11
241.144813278
 21
201.3842323651
 31
0.0
  0
LINE
  5
147
  8
0
  6
CONTINUOUS
 62
     7
 10
231.144813278
 20
204.1842323651
 30
0.0
 11
231.144813278
 21
201.3842323651
 31
0.0
  0
LINE
  5
148
  8
0
  6
CONTINUOUS
 62
     7
 10
218.644813278
 20
204.1842323651
 30
0.0
 11
231.144813278
 21
204.1842323651
 31
0.0
  0
LINE
  5
149
  8
0
  6
CONTINUOUS
 62
     7
 10
218.644813278
 20
201.3842323651
 30
0.0
 11
218.644813278
 21
204.1842323651
 31
0.0
  0
LINE
  5
14A
  8
0
  6
CONTINUOUS
 62
     7
 10
215.144813278
 20
201.3842323651
 30
0.0
 11
218.644813278
 21
201.3842323651
 31
0.0
  0
LINE
  5
14B
  8
0
  6
CONTINUOUS
 62
     7
 10
208.644813278
 20
204.1842323651
 30
0.0
 11
208.644813278
 21
201.3842323651
 31
0.0
  0
LINE
  5
14C
  8
0
  6
CONTINUOUS
 62
     7
 10
196.144813278
 20
204.1842323651
 30
0.0
 11
208.644813278
 21
204.1842323651
 31
0.0
  0
LINE
  5
14D
  8
0
  6
CONTINUOUS
 62
     7
 10
196.144813278
 20
201.3842323651
 30
0.0
 11
196.144813278
 21
204.1842323651
 31
0.0
  0
LINE
  5
14E
  8
0
  6
CONTINUOUS
 62
     7
 10
186.144813278
 20
201.3842323651
 30
0.0
 11
196.144813278
 21
201.3842323651
 31
0.0
  0
LINE
  5
14F
  8
0
  6
CONTINUOUS
 62
     7
 10
186.144813278
 20
204.1842323651
 30
0.0
 11
186.144813278
 21
201.3842323651
 31
0.0
  0
LINE
  5
150
  8
0
  6
CONTINUOUS
 62
     7
 10
176.144813278
 20
204.1842323651
 30
0.0
 11
186.144813278
 21
204.1842323651
 31
0.0
  0
LINE
  5
151
  8
0
  6
CONTINUOUS
 62
     7
 10
176.144813278
 20
209.1842323651
 30
0.0
 11
176.144813278
 21
204.1842323651
 31
0.0
  0
LINE
  5
152
  8
0
  6
CONTINUOUS
 62
     7
 10
212.144813278
 20
236.9842323651
 30
0.0
 11
208.644813278
 21
236.9842323651
 31
0.0
  0
LINE
  5
153
  8
0
  6
CONTINUOUS
 62
     7
 10
208.644813278
 20
201.3842323651
 30
0.0
 11
212.144813278
 21
201.3842323651
 31
0.0
  0
LINE
  5
154
  8
0
  6
CONTINUOUS
 62
     7
 10
103.6466804979
 20
214.3560165975
 30
0.0
 11
103.6466804979
 21
211.8560165975
 31
0.0
  0
LINE
  5
155
  8
0
  6
CONTINUOUS
 62
     7
 10
103.6466804979
 20
211.8560165975
 30
0.0
 11
104.8966804979
 21
211.8560165975
 31
0.0
  0
LINE
  5
156
  8
0
  6
CONTINUOUS
 62
     7
 10
104.8966804979
 20
211.8560165975
 30
0.0
 11
104.8966804979
 21
209.8560165975
 31
0.0
  0
LINE
  5
157
  8
0
  6
CONTINUOUS
 62
     7
 10
104.8966804979
 20
209.8560165975
 30
0.0
 11
107.8966804979
 21
209.8560165975
 31
0.0
  0
LINE
  5
158
  8
0
  6
CONTINUOUS
 62
     7
 10
107.8966804979
 20
209.8560165975
 30
0.0
 11
107.8966804979
 21
211.8560165975
 31
0.0
  0
LINE
  5
159
  8
0
  6
CONTINUOUS
 62
     7
 10
107.8966804979
 20
211.8560165975
 30
0.0
 11
109.1466804979
 21
211.8560165975
 31
0.0
  0
LINE
  5
15A
  8
0
  6
CONTINUOUS
 62
     7
 10
109.1466804979
 20
211.8560165975
 30
0.0
 11
109.1466804979
 21
214.3560165975
 31
0.0
  0
LINE
  5
15B
  8
0
  6
CONTINUOUS
 62
     7
 10
109.1466804979
 20
214.3560165975
 30
0.0
 11
107.8966804979
 21
214.3560165975
 31
0.0
  0
LINE
  5
15C
  8
0
  6
CONTINUOUS
 62
     7
 10
107.8966804979
 20
214.3560165975
 30
0.0
 11
107.8966804979
 21
223.3560165975
 31
0.0
  0
LINE
  5
15D
  8
0
  6
CONTINUOUS
 62
     7
 10
107.8966804979
 20
187.7560165975
 30
0.0
 11
107.8966804979
 21
196.7560165975
 31
0.0
  0
LINE
  5
15E
  8
0
  6
CONTINUOUS
 62
     7
 10
107.8966804979
 20
196.7560165975
 30
0.0
 11
109.1466804979
 21
196.7560165975
 31
0.0
  0
LINE
  5
15F
  8
0
  6
CONTINUOUS
 62
     7
 10
109.1466804979
 20
196.7560165975
 30
0.0
 11
109.1466804979
 21
199.2560165975
 31
0.0
  0
LINE
  5
160
  8
0
  6
CONTINUOUS
 62
     7
 10
109.1466804979
 20
199.2560165975
 30
0.0
 11
107.8966804979
 21
199.2560165975
 31
0.0
  0
LINE
  5
161
  8
0
  6
CONTINUOUS
 62
     7
 10
107.8966804979
 20
199.2560165975
 30
0.0
 11
107.8966804979
 21
201.2560165975
 31
0.0
  0
LINE
  5
162
  8
0
  6
CONTINUOUS
 62
     7
 10
107.8966804979
 20
201.2560165975
 30
0.0
 11
104.8966804979
 21
201.2560165975
 31
0.0
  0
LINE
  5
163
  8
0
  6
CONTINUOUS
 62
     7
 10
104.8966804979
 20
201.2560165975
 30
0.0
 11
104.8966804979
 21
199.2560165975
 31
0.0
  0
LINE
  5
164
  8
0
  6
CONTINUOUS
 62
     7
 10
104.8966804979
 20
199.2560165975
 30
0.0
 11
103.6466804979
 21
199.2560165975
 31
0.0
  0
LINE
  5
165
  8
0
  6
CONTINUOUS
 62
     7
 10
103.6466804979
 20
199.2560165975
 30
0.0
 11
103.6466804979
 21
196.7560165975
 31
0.0
  0
LINE
  5
166
  8
0
  6
CONTINUOUS
 62
     7
 10
103.6466804979
 20
196.7560165975
 30
0.0
 11
104.8966804979
 21
196.7560165975
 31
0.0
  0
LINE
  5
167
  8
0
  6
CONTINUOUS
 62
     7
 10
104.8966804979
 20
196.7560165975
 30
0.0
 11
104.8966804979
 21
187.7560165975
 31
0.0
  0
LINE
  5
168
  8
0
  6
CONTINUOUS
 62
     7
 10
104.8966804979
 20
223.3560165975
 30
0.0
 11
104.8966804979
 21
214.3560165975
 31
0.0
  0
LINE
  5
169
  8
0
  6
CONTINUOUS
 62
     7
 10
104.8966804979
 20
214.3560165975
 30
0.0
 11
103.6466804979
 21
214.3560165975
 31
0.0
  0
LINE
  5
16A
  8
0
  6
CONTINUOUS
 62
     7
 10
47.6466804979
 20
195.5560165975
 30
0.0
 11
44.6466804979
 21
195.5560165975
 31
0.0
  0
LINE
  5
16B
  8
0
  6
CONTINUOUS
 62
     7
 10
47.6466804979
 20
200.5560165975
 30
0.0
 11
47.6466804979
 21
195.5560165975
 31
0.0
  0
LINE
  5
16C
  8
0
  6
CONTINUOUS
 62
     7
 10
44.6466804979
 20
200.5560165975
 30
0.0
 11
47.6466804979
 21
200.5560165975
 31
0.0
  0
LINE
  5
16D
  8
0
  6
CONTINUOUS
 62
     7
 10
44.6466804979
 20
210.5560165975
 30
0.0
 11
44.6466804979
 21
200.5560165975
 31
0.0
  0
LINE
  5
16E
  8
0
  6
CONTINUOUS
 62
     7
 10
47.6466804979
 20
210.5560165975
 30
0.0
 11
44.6466804979
 21
210.5560165975
 31
0.0
  0
LINE
  5
16F
  8
0
  6
CONTINUOUS
 62
     7
 10
47.6466804979
 20
215.5560165975
 30
0.0
 11
47.6466804979
 21
210.5560165975
 31
0.0
  0
LINE
  5
170
  8
0
  6
CONTINUOUS
 62
     7
 10
44.6466804979
 20
215.5560165975
 30
0.0
 11
47.6466804979
 21
215.5560165975
 31
0.0
  0
LINE
  5
171
  8
0
  6
CONTINUOUS
 62
     7
 10
44.6466804979
 20
220.5560165975
 30
0.0
 11
44.6466804979
 21
215.5560165975
 31
0.0
  0
LINE
  5
172
  8
0
  6
CONTINUOUS
 62
     7
 10
54.6466804979
 20
220.5560165975
 30
0.0
 11
44.6466804979
 21
220.5560165975
 31
0.0
  0
LINE
  5
173
  8
0
  6
CONTINUOUS
 62
     7
 10
54.6466804979
 20
223.3560165975
 30
0.0
 11
54.6466804979
 21
220.5560165975
 31
0.0
  0
LINE
  5
174
  8
0
  6
CONTINUOUS
 62
     7
 10
64.6466804979
 20
223.3560165975
 30
0.0
 11
54.6466804979
 21
223.3560165975
 31
0.0
  0
LINE
  5
175
  8
0
  6
CONTINUOUS
 62
     7
 10
64.6466804979
 20
220.5560165975
 30
0.0
 11
64.6466804979
 21
223.3560165975
 31
0.0
  0
LINE
  5
176
  8
0
  6
CONTINUOUS
 62
     7
 10
74.6466804979
 20
220.5560165975
 30
0.0
 11
64.6466804979
 21
220.5560165975
 31
0.0
  0
LINE
  5
177
  8
0
  6
CONTINUOUS
 62
     7
 10
74.6466804979
 20
223.3560165975
 30
0.0
 11
74.6466804979
 21
220.5560165975
 31
0.0
  0
LINE
  5
178
  8
0
  6
CONTINUOUS
 62
     7
 10
84.6466804979
 20
223.3560165975
 30
0.0
 11
74.6466804979
 21
223.3560165975
 31
0.0
  0
LINE
  5
179
  8
0
  6
CONTINUOUS
 62
     7
 10
84.6466804979
 20
220.5560165975
 30
0.0
 11
84.6466804979
 21
223.3560165975
 31
0.0
  0
LINE
  5
17A
  8
0
  6
CONTINUOUS
 62
     7
 10
101.3966804979
 20
220.5560165975
 30
0.0
 11
84.6466804979
 21
220.5560165975
 31
0.0
  0
LINE
  5
17B
  8
0
  6
CONTINUOUS
 62
     7
 10
101.3966804979
 20
223.3560165975
 30
0.0
 11
101.3966804979
 21
220.5560165975
 31
0.0
  0
LINE
  5
17C
  8
0
  6
CONTINUOUS
 62
     7
 10
111.3966804979
 20
223.3560165975
 30
0.0
 11
107.8966804979
 21
223.3560165975
 31
0.0
  0
LINE
  5
17D
  8
0
  6
CONTINUOUS
 62
     7
 10
111.3966804979
 20
220.5560165975
 30
0.0
 11
111.3966804979
 21
223.3560165975
 31
0.0
  0
LINE
  5
17E
  8
0
  6
CONTINUOUS
 62
     7
 10
128.1466804979
 20
220.5560165975
 30
0.0
 11
111.3966804979
 21
220.5560165975
 31
0.0
  0
LINE
  5
17F
  8
0
  6
CONTINUOUS
 62
     7
 10
128.1466804979
 20
223.3560165975
 30
0.0
 11
128.1466804979
 21
220.5560165975
 31
0.0
  0
LINE
  5
180
  8
0
  6
CONTINUOUS
 62
     7
 10
138.1466804979
 20
223.3560165975
 30
0.0
 11
128.1466804979
 21
223.3560165975
 31
0.0
  0
LINE
  5
181
  8
0
  6
CONTINUOUS
 62
     7
 10
138.1466804979
 20
220.5560165975
 30
0.0
 11
138.1466804979
 21
223.3560165975
 31
0.0
  0
LINE
  5
182
  8
0
  6
CONTINUOUS
 62
     7
 10
148.1466804979
 20
220.5560165975
 30
0.0
 11
138.1466804979
 21
220.5560165975
 31
0.0
  0
LINE
  5
183
  8
0
  6
CONTINUOUS
 62
     7
 10
148.1466804979
 20
223.3560165975
 30
0.0
 11
148.1466804979
 21
220.5560165975
 31
0.0
  0
LINE
  5
184
  8
0
  6
CONTINUOUS
 62
     7
 10
158.1466804979
 20
223.3560165975
 30
0.0
 11
148.1466804979
 21
223.3560165975
 31
0.0
  0
LINE
  5
185
  8
0
  6
CONTINUOUS
 62
     7
 10
158.1466804979
 20
220.5560165975
 30
0.0
 11
158.1466804979
 21
223.3560165975
 31
0.0
  0
LINE
  5
186
  8
0
  6
CONTINUOUS
 62
     7
 10
168.1466804979
 20
220.5560165975
 30
0.0
 11
158.1466804979
 21
220.5560165975
 31
0.0
  0
LINE
  5
187
  8
0
  6
CONTINUOUS
 62
     7
 10
168.1466804979
 20
215.5560165975
 30
0.0
 11
168.1466804979
 21
220.5560165975
 31
0.0
  0
LINE
  5
188
  8
0
  6
CONTINUOUS
 62
     7
 10
165.1466804979
 20
215.5560165975
 30
0.0
 11
168.1466804979
 21
215.5560165975
 31
0.0
  0
LINE
  5
189
  8
0
  6
CONTINUOUS
 62
     7
 10
165.1466804979
 20
210.5560165975
 30
0.0
 11
165.1466804979
 21
215.5560165975
 31
0.0
  0
LINE
  5
18A
  8
0
  6
CONTINUOUS
 62
     7
 10
168.1466804979
 20
210.5560165975
 30
0.0
 11
165.1466804979
 21
210.5560165975
 31
0.0
  0
LINE
  5
18B
  8
0
  6
CONTINUOUS
 62
     7
 10
168.1466804979
 20
200.5560165975
 30
0.0
 11
168.1466804979
 21
210.5560165975
 31
0.0
  0
LINE
  5
18C
  8
0
  6
CONTINUOUS
 62
     7
 10
165.1466804979
 20
200.5560165975
 30
0.0
 11
168.1466804979
 21
200.5560165975
 31
0.0
  0
LINE
  5
18D
  8
0
  6
CONTINUOUS
 62
     7
 10
165.1466804979
 20
195.5560165975
 30
0.0
 11
165.1466804979
 21
200.5560165975
 31
0.0
  0
LINE
  5
18E
  8
0
  6
CONTINUOUS
 62
     7
 10
168.1466804979
 20
195.5560165975
 30
0.0
 11
165.1466804979
 21
195.5560165975
 31
0.0
  0
LINE
  5
18F
  8
0
  6
CONTINUOUS
 62
     7
 10
168.1466804979
 20
190.5560165975
 30
0.0
 11
168.1466804979
 21
195.5560165975
 31
0.0
  0
LINE
  5
190
  8
0
  6
CONTINUOUS
 62
     7
 10
158.1466804979
 20
190.5560165975
 30
0.0
 11
168.1466804979
 21
190.5560165975
 31
0.0
  0
LINE
  5
191
  8
0
  6
CONTINUOUS
 62
     7
 10
158.1466804979
 20
187.7560165975
 30
0.0
 11
158.1466804979
 21
190.5560165975
 31
0.0
  0
LINE
  5
192
  8
0
  6
CONTINUOUS
 62
     7
 10
148.1466804979
 20
187.7560165975
 30
0.0
 11
158.1466804979
 21
187.7560165975
 31
0.0
  0
LINE
  5
193
  8
0
  6
CONTINUOUS
 62
     7
 10
148.1466804979
 20
190.5560165975
 30
0.0
 11
148.1466804979
 21
187.7560165975
 31
0.0
  0
LINE
  5
194
  8
0
  6
CONTINUOUS
 62
     7
 10
138.1466804979
 20
190.5560165975
 30
0.0
 11
148.1466804979
 21
190.5560165975
 31
0.0
  0
LINE
  5
195
  8
0
  6
CONTINUOUS
 62
     7
 10
138.1466804979
 20
187.7560165975
 30
0.0
 11
138.1466804979
 21
190.5560165975
 31
0.0
  0
LINE
  5
196
  8
0
  6
CONTINUOUS
 62
     7
 10
128.1466804979
 20
187.7560165975
 30
0.0
 11
138.1466804979
 21
187.7560165975
 31
0.0
  0
LINE
  5
197
  8
0
  6
CONTINUOUS
 62
     7
 10
128.1466804979
 20
190.5560165975
 30
0.0
 11
128.1466804979
 21
187.7560165975
 31
0.0
  0
LINE
  5
198
  8
0
  6
CONTINUOUS
 62
     7
 10
111.3966804979
 20
190.5560165975
 30
0.0
 11
128.1466804979
 21
190.5560165975
 31
0.0
  0
LINE
  5
199
  8
0
  6
CONTINUOUS
 62
     7
 10
111.3966804979
 20
187.7560165975
 30
0.0
 11
111.3966804979
 21
190.5560165975
 31
0.0
  0
LINE
  5
19A
  8
0
  6
CONTINUOUS
 62
     7
 10
107.8966804979
 20
187.7560165975
 30
0.0
 11
111.3966804979
 21
187.7560165975
 31
0.0
  0
LINE
  5
19B
  8
0
  6
CONTINUOUS
 62
     7
 10
101.3966804979
 20
190.5560165975
 30
0.0
 11
101.3966804979
 21
187.7560165975
 31
0.0
  0
LINE
  5
19C
  8
0
  6
CONTINUOUS
 62
     7
 10
84.6466804979
 20
190.5560165975
 30
0.0
 11
101.3966804979
 21
190.5560165975
 31
0.0
  0
LINE
  5
19D
  8
0
  6
CONTINUOUS
 62
     7
 10
84.6466804979
 20
187.7560165975
 30
0.0
 11
84.6466804979
 21
190.5560165975
 31
0.0
  0
LINE
  5
19E
  8
0
  6
CONTINUOUS
 62
     7
 10
74.6466804979
 20
187.7560165975
 30
0.0
 11
84.6466804979
 21
187.7560165975
 31
0.0
  0
LINE
  5
19F
  8
0
  6
CONTINUOUS
 62
     7
 10
74.6466804979
 20
190.5560165975
 30
0.0
 11
74.6466804979
 21
187.7560165975
 31
0.0
  0
LINE
  5
1A0
  8
0
  6
CONTINUOUS
 62
     7
 10
64.6466804979
 20
190.5560165975
 30
0.0
 11
74.6466804979
 21
190.5560165975
 31
0.0
  0
LINE
  5
1A1
  8
0
  6
CONTINUOUS
 62
     7
 10
64.6466804979
 20
187.7560165975
 30
0.0
 11
64.6466804979
 21
190.5560165975
 31
0.0
  0
LINE
  5
1A2
  8
0
  6
CONTINUOUS
 62
     7
 10
54.6466804979
 20
187.7560165975
 30
0.0
 11
64.6466804979
 21
187.7560165975
 31
0.0
  0
LINE
  5
1A3
  8
0
  6
CONTINUOUS
 62
     7
 10
54.6466804979
 20
190.5560165975
 30
0.0
 11
54.6466804979
 21
187.7560165975
 31
0.0
  0
LINE
  5
1A4
  8
0
  6
CONTINUOUS
 62
     7
 10
44.6466804979
 20
190.5560165975
 30
0.0
 11
54.6466804979
 21
190.5560165975
 31
0.0
  0
LINE
  5
1A5
  8
0
  6
CONTINUOUS
 62
     7
 10
44.6466804979
 20
195.5560165975
 30
0.0
 11
44.6466804979
 21
190.5560165975
 31
0.0
  0
LINE
  5
1A6
  8
0
  6
CONTINUOUS
 62
     7
 10
101.3966804979
 20
187.7560165975
 30
0.0
 11
104.8966804979
 21
187.7560165975
 31
0.0
  0
LINE
  5
1A7
  8
0
  6
CONTINUOUS
 62
     7
 10
104.8966804979
 20
223.3560165975
 30
0.0
 11
101.3966804979
 21
223.3560165975
 31
0.0
  0
CIRCLE
  5
1A8
  8
0
  6
CONTINUOUS
 62
     7
 10
470.5645390708
 20
249.1645390708
 30
0.0
 40
2.0
  0
CIRCLE
  5
1A9
  8
0
  6
CONTINUOUS
 62
     7
 10
470.5645390708
 20
376.4437596844
 30
0.0
 40
2.0
  0
CIRCLE
  5
1AA
  8
0
  6
CONTINUOUS
 62
     7
 10
597.8437596844
 20
376.4437596844
 30
0.0
 40
2.0
  0
CIRCLE
  5
1AB
  8
0
  6
CONTINUOUS
 62
     7
 10
597.8437596844
 20
249.1645390708
 30
0.0
 40
2.0
  0
CIRCLE
  5
1AC
  8
0
  6
CONTINUOUS
 62
     7
 10
534.2041493776
 20
222.8041493776
 30
0.0
 40
2.0
  0
CIRCLE
  5
1AD
  8
0
  6
CONTINUOUS
 62
     7
 10
624.2041493776
 20
312.8041493776
 30
0.0
 40
2.0
  0
CIRCLE
  5
1AE
  8
0
  6
CONTINUOUS
 62
     7
 10
534.2041493776
 20
402.8041493776
 30
0.0
 40
2.0
  0
CIRCLE
  5
1AF
  8
0
  6
CONTINUOUS
 62
     7
 10
444.2041493776
 20
312.8041493776
 30
0.0
 40
2.0
  0
CIRCLE
  5
1B0
  8
0
  6
CONTINUOUS
 62
     7
 10
550.7041493776
 20
275.3041493776
 30
0.0
 40
1.5
  0
CIRCLE
  5
1B1
  8
0
  6
CONTINUOUS
 62
     7
 10
523.2041493776
 20
330.3041493776
 30
0.0
 40
1.5
  0
ARC
  5
1B2
  8
0
  6
CONTINUOUS
 62
     7
 10
549.777417209
 20
237.1295779759
 30
0.0
 40
7.0
 50
270.0
 51
90.0
  0
LINE
  5
1B3
  8
0
  6
CONTINUOUS
 62
     7
 10
519.777417209
 20
244.1295779759
 30
0.0
 11
549.777417209
 21
244.1295779759
 31
0.0
  0
ARC
  5
1B4
  8
0
  6
CONTINUOUS
 62
     7
 10
519.777417209
 20
237.1295779759
 30
0.0
 40
7.0
 50
90.0
 51
270.0
  0
LINE
  5
1B5
  8
0
  6
CONTINUOUS
 62
     7
 10
549.777417209
 20
230.1295779759
 30
0.0
 11
519.777417209
 21
230.1295779759
 31
0.0
  0
CIRCLE
  5
1B6
  8
0
  6
CONTINUOUS
 62
     7
 10
512.1615279879
 20
292.1183108237
 30
0.0
 40
2.374999999999943
  0
CIRCLE
  5
1B7
  8
0
  6
CONTINUOUS
 62
     7
 10
559.4865279879
 20
290.8183108237
 30
0.0
 40
2.375000000000057
  0
CIRCLE
  5
1B8
  8
0
  6
CONTINUOUS
 62
     7
 10
555.2615279879
 20
342.9183108237
 30
0.0
 40
2.374999999999943
  0
CIRCLE
  5
1B9
  8
0
  6
CONTINUOUS
 62
     7
 10
527.3615279879
 20
342.9183108237
 30
0.0
 40
2.375
  0
ARC
  5
1BA
  8
0
  6
CONTINUOUS
 62
     7
 10
549.777417209
 20
388.4787207792
 30
0.0
 40
7.0
 50
270.0
 51
90.0
  0
LINE
  5
1BB
  8
0
  6
CONTINUOUS
 62
     7
 10
519.777417209
 20
395.4787207792
 30
0.0
 11
549.777417209
 21
395.4787207792
 31
0.0
  0
ARC
  5
1BC
  8
0
  6
CONTINUOUS
 62
     7
 10
519.777417209
 20
388.4787207792
 30
0.0
 40
7.0
 50
90.0
 51
270.0
  0
LINE
  5
1BD
  8
0
  6
CONTINUOUS
 62
     7
 10
549.777417209
 20
381.4787207792
 30
0.0
 11
519.777417209
 21
381.4787207792
 31
0.0
  0
CIRCLE
  5
1BE
  8
0
  6
CONTINUOUS
 62
     7
 10
504.777417209
 20
388.4787207792
 30
0.0
 40
4.0
  0
CIRCLE
  5
1BF
  8
0
  6
CONTINUOUS
 62
     7
 10
564.2041493776
 20
388.4787207792
 30
0.0
 40
4.0
  0
CIRCLE
  5
1C0
  8
0
  6
CONTINUOUS
 62
     7
 10
564.2041493776
 20
237.1295779759
 30
0.0
 40
4.0
  0
CIRCLE
  5
1C1
  8
0
  6
CONTINUOUS
 62
     7
 10
504.2041493776
 20
237.1295779759
 30
0.0
 40
4.0
  0
ARC
  5
1C2
  8
0
  6
CONTINUOUS
 62
     7
 10
574.2041493776
 20
352.8041493776
 30
0.0
 40
7.0
 50
0.0
 51
180.0
  0
LINE
  5
1C3
  8
0
  6
CONTINUOUS
 62
     7
 10
567.2041493776
 20
352.8041493776
 30
0.0
 11
567.2041493776
 21
322.8041493776
 31
0.0
  0
ARC
  5
1C4
  8
0
  6
CONTINUOUS
 62
     7
 10
574.2041493776
 20
322.8041493776
 30
0.0
 40
7.0
 50
180.0
 51
0.0
  0
LINE
  5
1C5
  8
0
  6
CONTINUOUS
 62
     7
 10
581.2041493776
 20
322.8041493776
 30
0.0
 11
581.2041493776
 21
352.8041493776
 31
0.0
  0
CIRCLE
  5
1C6
  8
0
  6
CONTINUOUS
 62
     7
 10
589.2041493776
 20
343.8041493776
 30
0.0
 40
4.000000000000057
  0
CIRCLE
  5
1C7
  8
0
  6
CONTINUOUS
 62
     7
 10
589.2041493776
 20
331.8041493776
 30
0.0
 40
4.0
  0
CIRCLE
  5
1C8
  8
0
  6
CONTINUOUS
 62
     7
 10
464.2041493776
 20
267.8041493776
 30
0.0
 40
2.0
  0
CIRCLE
  5
1C9
  8
0
  6
CONTINUOUS
 62
     7
 10
584.2041493776
 20
257.8041493776
 30
0.0
 40
2.0
  0
CIRCLE
  5
1CA
  8
0
  6
CONTINUOUS
 62
     7
 10
474.2041493776
 20
367.8041493776
 30
0.0
 40
2.0
  0
CIRCLE
  5
1CB
  8
0
  6
CONTINUOUS
 62
     7
 10
474.2041493776
 20
277.8041493776
 30
0.0
 40
2.0
  0
CIRCLE
  5
1CC
  8
0
  6
CONTINUOUS
 62
     7
 10
484.2041493776
 20
277.8041493776
 30
0.0
 40
2.0
  0
CIRCLE
  5
1CD
  8
0
  6
CONTINUOUS
 62
     7
 10
494.2041493776
 20
277.8041493776
 30
0.0
 40
2.0
  0
CIRCLE
  5
1CE
  8
0
  6
CONTINUOUS
 62
     7
 10
474.2041493776
 20
287.8041493776
 30
0.0
 40
2.0
  0
CIRCLE
  5
1CF
  8
0
  6
CONTINUOUS
 62
     7
 10
484.2041493776
 20
287.8041493776
 30
0.0
 40
2.0
  0
CIRCLE
  5
1D0
  8
0
  6
CONTINUOUS
 62
     7
 10
494.2041493776
 20
287.8041493776
 30
0.0
 40
2.0
  0
CIRCLE
  5
1D1
  8
0
  6
CONTINUOUS
 62
     7
 10
584.2041493776
 20
307.8041493776
 30
0.0
 40
2.0
  0
CIRCLE
  5
1D2
  8
0
  6
CONTINUOUS
 62
     7
 10
474.2041493776
 20
297.8041493776
 30
0.0
 40
2.0
  0
CIRCLE
  5
1D3
  8
0
  6
CONTINUOUS
 62
     7
 10
484.2041493776
 20
297.8041493776
 30
0.0
 40
2.0
  0
CIRCLE
  5
1D4
  8
0
  6
CONTINUOUS
 62
     7
 10
494.2041493776
 20
297.8041493776
 30
0.0
 40
2.0
  0
CIRCLE
  5
1D5
  8
0
  6
CONTINUOUS
 62
     7
 10
484.2041493776
 20
367.8041493776
 30
0.0
 40
2.0
  0
CIRCLE
  5
1D6
  8
0
  6
CONTINUOUS
 62
     7
 10
474.2041493776
 20
307.8041493776
 30
0.0
 40
2.0
  0
CIRCLE
  5
1D7
  8
0
  6
CONTINUOUS
 62
     7
 10
484.2041493776
 20
307.8041493776
 30
0.0
 40
2.0
  0
CIRCLE
  5
1D8
  8
0
  6
CONTINUOUS
 62
     7
 10
494.2041493776
 20
307.8041493776
 30
0.0
 40
2.0
  0
CIRCLE
  5
1D9
  8
0
  6
CONTINUOUS
 62
     7
 10
494.2041493776
 20
367.8041493776
 30
0.0
 40
2.0
  0
CIRCLE
  5
1DA
  8
0
  6
CONTINUOUS
 62
     7
 10
474.2041493776
 20
317.8041493776
 30
0.0
 40
2.0
  0
CIRCLE
  5
1DB
  8
0
  6
CONTINUOUS
 62
     7
 10
484.2041493776
 20
317.8041493776
 30
0.0
 40
2.0
  0
CIRCLE
  5
1DC
  8
0
  6
CONTINUOUS
 62
     7
 10
494.2041493776
 20
317.8041493776
 30
0.0
 40
2.0
  0
CIRCLE
  5
1DD
  8
0
  6
CONTINUOUS
 62
     7
 10
484.2041493776
 20
377.8041493776
 30
0.0
 40
2.0
  0
CIRCLE
  5
1DE
  8
0
  6
CONTINUOUS
 62
     7
 10
474.2041493776
 20
327.8041493776
 30
0.0
 40
2.0
  0
CIRCLE
  5
1DF
  8
0
  6
CONTINUOUS
 62
     7
 10
484.2041493776
 20
327.8041493776
 30
0.0
 40
2.0
  0
CIRCLE
  5
1E0
  8
0
  6
CONTINUOUS
 62
     7
 10
494.2041493776
 20
327.8041493776
 30
0.0
 40
2.0
  0
CIRCLE
  5
1E1
  8
0
  6
CONTINUOUS
 62
     7
 10
494.2041493776
 20
377.8041493776
 30
0.0
 40
2.0
  0
CIRCLE
  5
1E2
  8
0
  6
CONTINUOUS
 62
     7
 10
504.2041493776
 20
367.8041493776
 30
0.0
 40
2.0
  0
CIRCLE
  5
1E3
  8
0
  6
CONTINUOUS
 62
     7
 10
474.2041493776
 20
337.8041493776
 30
0.0
 40
2.0
  0
CIRCLE
  5
1E4
  8
0
  6
CONTINUOUS
 62
     7
 10
484.2041493776
 20
337.8041493776
 30
0.0
 40
2.0
  0
CIRCLE
  5
1E5
  8
0
  6
CONTINUOUS
 62
     7
 10
494.2041493776
 20
337.8041493776
 30
0.0
 40
2.0
  0
CIRCLE
  5
1E6
  8
0
  6
CONTINUOUS
 62
     7
 10
504.2041493776
 20
377.8041493776
 30
0.0
 40
2.0
  0
CIRCLE
  5
1E7
  8
0
  6
CONTINUOUS
 62
     7
 10
474.2041493776
 20
347.8041493776
 30
0.0
 40
2.0
  0
CIRCLE
  5
1E8
  8
0
  6
CONTINUOUS
 62
     7
 10
484.2041493776
 20
347.8041493776
 30
0.0
 40
2.0
  0
CIRCLE
  5
1E9
  8
0
  6
CONTINUOUS
 62
     7
 10
494.2041493776
 20
347.8041493776
 30
0.0
 40
2.0
  0
CIRCLE
  5
1EA
  8
0
  6
CONTINUOUS
 62
     7
 10
514.2041493776
 20
367.8041493776
 30
0.0
 40
2.0
  0
CIRCLE
  5
1EB
  8
0
  6
CONTINUOUS
 62
     7
 10
474.2041493776
 20
357.8041493776
 30
0.0
 40
2.0
  0
CIRCLE
  5
1EC
  8
0
  6
CONTINUOUS
 62
     7
 10
484.2041493776
 20
357.8041493776
 30
0.0
 40
2.0
  0
CIRCLE
  5
1ED
  8
0
  6
CONTINUOUS
 62
     7
 10
494.2041493776
 20
357.8041493776
 30
0.0
 40
2.0
  0
CIRCLE
  5
1EE
  8
0
  6
CONTINUOUS
 62
     7
 10
514.2041493776
 20
377.8041493776
 30
0.0
 40
2.0
  0
CIRCLE
  5
1EF
  8
0
  6
CONTINUOUS
 62
     7
 10
464.2041493776
 20
277.8041493776
 30
0.0
 40
2.0
  0
CIRCLE
  5
1F0
  8
0
  6
CONTINUOUS
 62
     7
 10
464.2041493776
 20
287.8041493776
 30
0.0
 40
2.0
  0
CIRCLE
  5
1F1
  8
0
  6
CONTINUOUS
 62
     7
 10
464.2041493776
 20
297.8041493776
 30
0.0
 40
1.999999999999943
  0
CIRCLE
  5
1F2
  8
0
  6
CONTINUOUS
 62
     7
 10
464.2041493776
 20
307.8041493776
 30
0.0
 40
2.0
  0
CIRCLE
  5
1F3
  8
0
  6
CONTINUOUS
 62
     7
 10
464.2041493776
 20
317.8041493776
 30
0.0
 40
2.0
  0
CIRCLE
  5
1F4
  8
0
  6
CONTINUOUS
 62
     7
 10
464.2041493776
 20
327.8041493776
 30
0.0
 40
2.0
  0
CIRCLE
  5
1F5
  8
0
  6
CONTINUOUS
 62
     7
 10
464.2041493776
 20
337.8041493776
 30
0.0
 40
2.0
  0
CIRCLE
  5
1F6
  8
0
  6
CONTINUOUS
 62
     7
 10
464.2041493776
 20
347.8041493776
 30
0.0
 40
2.0
  0
CIRCLE
  5
1F7
  8
0
  6
CONTINUOUS
 62
     7
 10
464.2041493776
 20
357.8041493776
 30
0.0
 40
2.0
  0
CIRCLE
  5
1F8
  8
0
  6
CONTINUOUS
 62
     7
 10
524.2041493776
 20
367.8041493776
 30
0.0
 40
2.0
  0
CIRCLE
  5
1F9
  8
0
  6
CONTINUOUS
 62
     7
 10
524.2041493776
 20
377.8041493776
 30
0.0
 40
2.0
  0
CIRCLE
  5
1FA
  8
0
  6
CONTINUOUS
 62
     7
 10
534.2041493776
 20
367.8041493776
 30
0.0
 40
2.0
  0
CIRCLE
  5
1FB
  8
0
  6
CONTINUOUS
 62
     7
 10
534.2041493776
 20
377.8041493776
 30
0.0
 40
2.0
  0
CIRCLE
  5
1FC
  8
0
  6
CONTINUOUS
 62
     7
 10
544.2041493776
 20
367.8041493776
 30
0.0
 40
2.0
  0
CIRCLE
  5
1FD
  8
0
  6
CONTINUOUS
 62
     7
 10
544.2041493776
 20
377.8041493776
 30
0.0
 40
2.0
  0
CIRCLE
  5
1FE
  8
0
  6
CONTINUOUS
 62
     7
 10
554.2041493776
 20
367.8041493776
 30
0.0
 40
2.0
  0
CIRCLE
  5
1FF
  8
0
  6
CONTINUOUS
 62
     7
 10
554.2041493776
 20
377.8041493776
 30
0.0
 40
2.0
  0
CIRCLE
  5
200
  8
0
  6
CONTINUOUS
 62
     7
 10
564.2041493776
 20
367.8041493776
 30
0.0
 40
2.0
  0
CIRCLE
  5
201
  8
0
  6
CONTINUOUS
 62
     7
 10
564.2041493776
 20
377.8041493776
 30
0.0
 40
2.0
  0
CIRCLE
  5
202
  8
0
  6
CONTINUOUS
 62
     7
 10
574.2041493776
 20
367.8041493776
 30
0.0
 40
2.0
  0
CIRCLE
  5
203
  8
0
  6
CONTINUOUS
 62
     7
 10
574.2041493776
 20
377.8041493776
 30
0.0
 40
2.0
  0
CIRCLE
  5
204
  8
0
  6
CONTINUOUS
 62
     7
 10
584.2041493776
 20
367.8041493776
 30
0.0
 40
2.0
  0
CIRCLE
  5
205
  8
0
  6
CONTINUOUS
 62
     7
 10
584.2041493776
 20
377.8041493776
 30
0.0
 40
2.0
  0
CIRCLE
  5
206
  8
0
  6
CONTINUOUS
 62
     7
 10
594.2041493776
 20
367.8041493776
 30
0.0
 40
2.0
  0
CIRCLE
  5
207
  8
0
  6
CONTINUOUS
 62
     7
 10
594.2041493776
 20
357.8041493776
 30
0.0
 40
2.0
  0
CIRCLE
  5
208
  8
0
  6
CONTINUOUS
 62
     7
 10
474.2041493776
 20
267.8041493776
 30
0.0
 40
2.0
  0
CIRCLE
  5
209
  8
0
  6
CONTINUOUS
 62
     7
 10
584.2041493776
 20
297.8041493776
 30
0.0
 40
2.0
  0
CIRCLE
  5
20A
  8
0
  6
CONTINUOUS
 62
     7
 10
584.2041493776
 20
287.8041493776
 30
0.0
 40
2.0
  0
CIRCLE
  5
20B
  8
0
  6
CONTINUOUS
 62
     7
 10
594.2041493776
 20
317.8041493776
 30
0.0
 40
2.0
  0
CIRCLE
  5
20C
  8
0
  6
CONTINUOUS
 62
     7
 10
594.2041493776
 20
307.8041493776
 30
0.0
 40
2.0
  0
CIRCLE
  5
20D
  8
0
  6
CONTINUOUS
 62
     7
 10
594.2041493776
 20
297.8041493776
 30
0.0
 40
2.0
  0
CIRCLE
  5
20E
  8
0
  6
CONTINUOUS
 62
     7
 10
594.2041493776
 20
287.8041493776
 30
0.0
 40
2.0
  0
CIRCLE
  5
20F
  8
0
  6
CONTINUOUS
 62
     7
 10
594.2041493776
 20
277.8041493776
 30
0.0
 40
2.0
  0
CIRCLE
  5
210
  8
0
  6
CONTINUOUS
 62
     7
 10
594.2041493776
 20
267.8041493776
 30
0.0
 40
2.0
  0
CIRCLE
  5
211
  8
0
  6
CONTINUOUS
 62
     7
 10
594.2041493776
 20
257.8041493776
 30
0.0
 40
2.0
  0
CIRCLE
  5
212
  8
0
  6
CONTINUOUS
 62
     7
 10
604.2041493776
 20
367.8041493776
 30
0.0
 40
2.0
  0
CIRCLE
  5
213
  8
0
  6
CONTINUOUS
 62
     7
 10
604.2041493776
 20
357.8041493776
 30
0.0
 40
2.0
  0
CIRCLE
  5
214
  8
0
  6
CONTINUOUS
 62
     7
 10
604.2041493776
 20
347.8041493776
 30
0.0
 40
2.0
  0
CIRCLE
  5
215
  8
0
  6
CONTINUOUS
 62
     7
 10
604.2041493776
 20
337.8041493776
 30
0.0
 40
2.0
  0
CIRCLE
  5
216
  8
0
  6
CONTINUOUS
 62
     7
 10
604.2041493776
 20
327.8041493776
 30
0.0
 40
2.0
  0
CIRCLE
  5
217
  8
0
  6
CONTINUOUS
 62
     7
 10
604.2041493776
 20
317.8041493776
 30
0.0
 40
2.0
  0
CIRCLE
  5
218
  8
0
  6
CONTINUOUS
 62
     7
 10
604.2041493776
 20
307.8041493776
 30
0.0
 40
2.0
  0
CIRCLE
  5
219
  8
0
  6
CONTINUOUS
 62
     7
 10
604.2041493776
 20
297.8041493776
 30
0.0
 40
2.0
  0
CIRCLE
  5
21A
  8
0
  6
CONTINUOUS
 62
     7
 10
604.2041493776
 20
287.8041493776
 30
0.0
 40
2.000000000000057
  0
CIRCLE
  5
21B
  8
0
  6
CONTINUOUS
 62
     7
 10
604.2041493776
 20
277.8041493776
 30
0.0
 40
2.0
  0
CIRCLE
  5
21C
  8
0
  6
CONTINUOUS
 62
     7
 10
604.2041493776
 20
267.8041493776
 30
0.0
 40
2.0
  0
CIRCLE
  5
21D
  8
0
  6
CONTINUOUS
 62
     7
 10
604.2041493776
 20
257.8041493776
 30
0.0
 40
2.0
  0
CIRCLE
  5
21E
  8
0
  6
CONTINUOUS
 62
     7
 10
584.2041493776
 20
277.8041493776
 30
0.0
 40
2.0
  0
CIRCLE
  5
21F
  8
0
  6
CONTINUOUS
 62
     7
 10
614.2041493776
 20
357.8041493776
 30
0.0
 40
2.0
  0
CIRCLE
  5
220
  8
0
  6
CONTINUOUS
 62
     7
 10
614.2041493776
 20
347.8041493776
 30
0.0
 40
2.000000000000057
  0
CIRCLE
  5
221
  8
0
  6
CONTINUOUS
 62
     7
 10
614.2041493776
 20
337.8041493776
 30
0.0
 40
2.0
  0
CIRCLE
  5
222
  8
0
  6
CONTINUOUS
 62
     7
 10
614.2041493776
 20
327.8041493776
 30
0.0
 40
2.0
  0
CIRCLE
  5
223
  8
0
  6
CONTINUOUS
 62
     7
 10
614.2041493776
 20
317.8041493776
 30
0.0
 40
2.0
  0
CIRCLE
  5
224
  8
0
  6
CONTINUOUS
 62
     7
 10
614.2041493776
 20
307.8041493776
 30
0.0
 40
2.0
  0
CIRCLE
  5
225
  8
0
  6
CONTINUOUS
 62
     7
 10
614.2041493776
 20
297.8041493776
 30
0.0
 40
2.0
  0
CIRCLE
  5
226
  8
0
  6
CONTINUOUS
 62
     7
 10
614.2041493776
 20
287.8041493776
 30
0.0
 40
2.0
  0
CIRCLE
  5
227
  8
0
  6
CONTINUOUS
 62
     7
 10
614.2041493776
 20
277.8041493776
 30
0.0
 40
2.0
  0
CIRCLE
  5
228
  8
0
  6
CONTINUOUS
 62
     7
 10
614.2041493776
 20
267.8041493776
 30
0.0
 40
2.0
  0
CIRCLE
  5
229
  8
0
  6
CONTINUOUS
 62
     7
 10
484.2041493776
 20
267.8041493776
 30
0.0
 40
2.0
  0
CIRCLE
  5
22A
  8
0
  6
CONTINUOUS
 62
     7
 10
574.2041493776
 20
307.8041493776
 30
0.0
 40
2.0
  0
CIRCLE
  5
22B
  8
0
  6
CONTINUOUS
 62
     7
 10
574.2041493776
 20
297.8041493776
 30
0.0
 40
2.0
  0
CIRCLE
  5
22C
  8
0
  6
CONTINUOUS
 62
     7
 10
574.2041493776
 20
287.8041493776
 30
0.0
 40
2.0
  0
CIRCLE
  5
22D
  8
0
  6
CONTINUOUS
 62
     7
 10
494.2041493776
 20
267.8041493776
 30
0.0
 40
2.0
  0
CIRCLE
  5
22E
  8
0
  6
CONTINUOUS
 62
     7
 10
574.2041493776
 20
277.8041493776
 30
0.0
 40
2.0
  0
CIRCLE
  5
22F
  8
0
  6
CONTINUOUS
 62
     7
 10
514.2041493776
 20
247.8041493776
 30
0.0
 40
2.0
  0
CIRCLE
  5
230
  8
0
  6
CONTINUOUS
 62
     7
 10
524.2041493776
 20
247.8041493776
 30
0.0
 40
2.0
  0
CIRCLE
  5
231
  8
0
  6
CONTINUOUS
 62
     7
 10
534.2041493776
 20
247.8041493776
 30
0.0
 40
2.0
  0
CIRCLE
  5
232
  8
0
  6
CONTINUOUS
 62
     7
 10
544.2041493776
 20
247.8041493776
 30
0.0
 40
2.0
  0
CIRCLE
  5
233
  8
0
  6
CONTINUOUS
 62
     7
 10
554.2041493776
 20
247.8041493776
 30
0.0
 40
2.0
  0
CIRCLE
  5
234
  8
0
  6
CONTINUOUS
 62
     7
 10
574.2041493776
 20
267.8041493776
 30
0.0
 40
2.0
  0
CIRCLE
  5
235
  8
0
  6
CONTINUOUS
 62
     7
 10
584.2041493776
 20
267.8041493776
 30
0.0
 40
2.0
  0
CIRCLE
  5
236
  8
0
  6
CONTINUOUS
 62
     7
 10
504.2041493776
 20
257.8041493776
 30
0.0
 40
2.0
  0
CIRCLE
  5
237
  8
0
  6
CONTINUOUS
 62
     7
 10
514.2041493776
 20
257.8041493776
 30
0.0
 40
2.0
  0
CIRCLE
  5
238
  8
0
  6
CONTINUOUS
 62
     7
 10
524.2041493776
 20
257.8041493776
 30
0.0
 40
2.0
  0
CIRCLE
  5
239
  8
0
  6
CONTINUOUS
 62
     7
 10
534.2041493776
 20
257.8041493776
 30
0.0
 40
2.0
  0
CIRCLE
  5
23A
  8
0
  6
CONTINUOUS
 62
     7
 10
544.2041493776
 20
257.8041493776
 30
0.0
 40
2.0
  0
CIRCLE
  5
23B
  8
0
  6
CONTINUOUS
 62
     7
 10
554.2041493776
 20
257.8041493776
 30
0.0
 40
2.0
  0
CIRCLE
  5
23C
  8
0
  6
CONTINUOUS
 62
     7
 10
564.2041493776
 20
257.8041493776
 30
0.0
 40
2.0
  0
CIRCLE
  5
23D
  8
0
  6
CONTINUOUS
 62
     7
 10
574.2041493776
 20
257.8041493776
 30
0.0
 40
2.0
  0
CIRCLE
  5
23E
  8
0
  6
CONTINUOUS
 62
     7
 10
494.2041493776
 20
247.8041493776
 30
0.0
 40
2.0
  0
CIRCLE
  5
23F
  8
0
  6
CONTINUOUS
 62
     7
 10
504.2041493776
 20
247.8041493776
 30
0.0
 40
2.0
  0
CIRCLE
  5
240
  8
0
  6
CONTINUOUS
 62
     7
 10
564.2041493776
 20
247.8041493776
 30
0.0
 40
2.0
  0
CIRCLE
  5
241
  8
0
  6
CONTINUOUS
 62
     7
 10
574.2041493776
 20
247.8041493776
 30
0.0
 40
2.0
  0
CIRCLE
  5
242
  8
0
  6
CONTINUOUS
 62
     7
 10
584.2041493776
 20
247.8041493776
 30
0.0
 40
2.0
  0
CIRCLE
  5
243
  8
0
  6
CONTINUOUS
 62
     7
 10
464.2041493776
 20
257.8041493776
 30
0.0
 40
2.0
  0
CIRCLE
  5
244
  8
0
  6
CONTINUOUS
 62
     7
 10
474.2041493776
 20
257.8041493776
 30
0.0
 40
2.0
  0
CIRCLE
  5
245
  8
0
  6
CONTINUOUS
 62
     7
 10
484.2041493776
 20
257.8041493776
 30
0.0
 40
2.0
  0
CIRCLE
  5
246
  8
0
  6
CONTINUOUS
 62
     7
 10
494.2041493776
 20
257.8041493776
 30
0.0
 40
2.0
  0
CIRCLE
  5
247
  8
0
  6
CONTINUOUS
 62
     7
 10
484.2041493776
 20
247.8041493776
 30
0.0
 40
2.0
  0
CIRCLE
  5
248
  8
0
  6
CONTINUOUS
 62
     7
 10
534.2041493776
 20
312.8041493776
 30
0.0
 40
100.0
  0
LINE
  5
249
  8
0
  6
CONTINUOUS
 62
     7
 10
102.4616182573
 20
174.0639004149
 30
0.0
 11
102.4616182573
 21
171.5639004149
 31
0.0
  0
LINE
  5
24A
  8
0
  6
CONTINUOUS
 62
     7
 10
102.4616182573
 20
171.5639004149
 30
0.0
 11
103.7116182573
 21
171.5639004149
 31
0.0
  0
LINE
  5
24B
  8
0
  6
CONTINUOUS
 62
     7
 10
103.7116182573
 20
171.5639004149
 30
0.0
 11
103.7116182573
 21
169.5639004149
 31
0.0
  0
LINE
  5
24C
  8
0
  6
CONTINUOUS
 62
     7
 10
103.7116182573
 20
169.5639004149
 30
0.0
 11
106.7116182573
 21
169.5639004149
 31
0.0
  0
LINE
  5
24D
  8
0
  6
CONTINUOUS
 62
     7
 10
106.7116182573
 20
169.5639004149
 30
0.0
 11
106.7116182573
 21
171.5639004149
 31
0.0
  0
LINE
  5
24E
  8
0
  6
CONTINUOUS
 62
     7
 10
106.7116182573
 20
171.5639004149
 30
0.0
 11
107.9616182573
 21
171.5639004149
 31
0.0
  0
LINE
  5
24F
  8
0
  6
CONTINUOUS
 62
     7
 10
107.9616182573
 20
171.5639004149
 30
0.0
 11
107.9616182573
 21
174.0639004149
 31
0.0
  0
LINE
  5
250
  8
0
  6
CONTINUOUS
 62
     7
 10
107.9616182573
 20
174.0639004149
 30
0.0
 11
106.7116182573
 21
174.0639004149
 31
0.0
  0
LINE
  5
251
  8
0
  6
CONTINUOUS
 62
     7
 10
106.7116182573
 20
174.0639004149
 30
0.0
 11
106.7116182573
 21
183.0639004149
 31
0.0
  0
LINE
  5
252
  8
0
  6
CONTINUOUS
 62
     7
 10
106.7116182573
 20
147.4639004149
 30
0.0
 11
106.7116182573
 21
156.4639004149
 31
0.0
  0
LINE
  5
253
  8
0
  6
CONTINUOUS
 62
     7
 10
106.7116182573
 20
156.4639004149
 30
0.0
 11
107.9616182573
 21
156.4639004149
 31
0.0
  0
LINE
  5
254
  8
0
  6
CONTINUOUS
 62
     7
 10
107.9616182573
 20
156.4639004149
 30
0.0
 11
107.9616182573
 21
158.9639004149
 31
0.0
  0
LINE
  5
255
  8
0
  6
CONTINUOUS
 62
     7
 10
107.9616182573
 20
158.9639004149
 30
0.0
 11
106.7116182573
 21
158.9639004149
 31
0.0
  0
LINE
  5
256
  8
0
  6
CONTINUOUS
 62
     7
 10
106.7116182573
 20
158.9639004149
 30
0.0
 11
106.7116182573
 21
160.9639004149
 31
0.0
  0
LINE
  5
257
  8
0
  6
CONTINUOUS
 62
     7
 10
106.7116182573
 20
160.9639004149
 30
0.0
 11
103.7116182573
 21
160.9639004149
 31
0.0
  0
LINE
  5
258
  8
0
  6
CONTINUOUS
 62
     7
 10
103.7116182573
 20
160.9639004149
 30
0.0
 11
103.7116182573
 21
158.9639004149
 31
0.0
  0
LINE
  5
259
  8
0
  6
CONTINUOUS
 62
     7
 10
103.7116182573
 20
158.9639004149
 30
0.0
 11
102.4616182573
 21
158.9639004149
 31
0.0
  0
LINE
  5
25A
  8
0
  6
CONTINUOUS
 62
     7
 10
102.4616182573
 20
158.9639004149
 30
0.0
 11
102.4616182573
 21
156.4639004149
 31
0.0
  0
LINE
  5
25B
  8
0
  6
CONTINUOUS
 62
     7
 10
102.4616182573
 20
156.4639004149
 30
0.0
 11
103.7116182573
 21
156.4639004149
 31
0.0
  0
LINE
  5
25C
  8
0
  6
CONTINUOUS
 62
     7
 10
103.7116182573
 20
156.4639004149
 30
0.0
 11
103.7116182573
 21
147.4639004149
 31
0.0
  0
LINE
  5
25D
  8
0
  6
CONTINUOUS
 62
     7
 10
103.7116182573
 20
183.0639004149
 30
0.0
 11
103.7116182573
 21
174.0639004149
 31
0.0
  0
LINE
  5
25E
  8
0
  6
CONTINUOUS
 62
     7
 10
103.7116182573
 20
174.0639004149
 30
0.0
 11
102.4616182573
 21
174.0639004149
 31
0.0
  0
LINE
  5
25F
  8
0
  6
CONTINUOUS
 62
     7
 10
46.4616182573
 20
155.2639004149
 30
0.0
 11
43.4616182573
 21
155.2639004149
 31
0.0
  0
LINE
  5
260
  8
0
  6
CONTINUOUS
 62
     7
 10
46.4616182573
 20
160.2639004149
 30
0.0
 11
46.4616182573
 21
155.2639004149
 31
0.0
  0
LINE
  5
261
  8
0
  6
CONTINUOUS
 62
     7
 10
43.4616182573
 20
160.2639004149
 30
0.0
 11
46.4616182573
 21
160.2639004149
 31
0.0
  0
LINE
  5
262
  8
0
  6
CONTINUOUS
 62
     7
 10
43.4616182573
 20
170.2639004149
 30
0.0
 11
43.4616182573
 21
160.2639004149
 31
0.0
  0
LINE
  5
263
  8
0
  6
CONTINUOUS
 62
     7
 10
46.4616182573
 20
170.2639004149
 30
0.0
 11
43.4616182573
 21
170.2639004149
 31
0.0
  0
LINE
  5
264
  8
0
  6
CONTINUOUS
 62
     7
 10
46.4616182573
 20
175.2639004149
 30
0.0
 11
46.4616182573
 21
170.2639004149
 31
0.0
  0
LINE
  5
265
  8
0
  6
CONTINUOUS
 62
     7
 10
43.4616182573
 20
175.2639004149
 30
0.0
 11
46.4616182573
 21
175.2639004149
 31
0.0
  0
LINE
  5
266
  8
0
  6
CONTINUOUS
 62
     7
 10
43.4616182573
 20
180.2639004149
 30
0.0
 11
43.4616182573
 21
175.2639004149
 31
0.0
  0
LINE
  5
267
  8
0
  6
CONTINUOUS
 62
     7
 10
53.4616182573
 20
180.2639004149
 30
0.0
 11
43.4616182573
 21
180.2639004149
 31
0.0
  0
LINE
  5
268
  8
0
  6
CONTINUOUS
 62
     7
 10
53.4616182573
 20
183.0639004149
 30
0.0
 11
53.4616182573
 21
180.2639004149
 31
0.0
  0
LINE
  5
269
  8
0
  6
CONTINUOUS
 62
     7
 10
63.4616182573
 20
183.0639004149
 30
0.0
 11
53.4616182573
 21
183.0639004149
 31
0.0
  0
LINE
  5
26A
  8
0
  6
CONTINUOUS
 62
     7
 10
63.4616182573
 20
180.2639004149
 30
0.0
 11
63.4616182573
 21
183.0639004149
 31
0.0
  0
LINE
  5
26B
  8
0
  6
CONTINUOUS
 62
     7
 10
73.4616182573
 20
180.2639004149
 30
0.0
 11
63.4616182573
 21
180.2639004149
 31
0.0
  0
LINE
  5
26C
  8
0
  6
CONTINUOUS
 62
     7
 10
73.4616182573
 20
183.0639004149
 30
0.0
 11
73.4616182573
 21
180.2639004149
 31
0.0
  0
LINE
  5
26D
  8
0
  6
CONTINUOUS
 62
     7
 10
83.4616182573
 20
183.0639004149
 30
0.0
 11
73.4616182573
 21
183.0639004149
 31
0.0
  0
LINE
  5
26E
  8
0
  6
CONTINUOUS
 62
     7
 10
83.4616182573
 20
180.2639004149
 30
0.0
 11
83.4616182573
 21
183.0639004149
 31
0.0
  0
LINE
  5
26F
  8
0
  6
CONTINUOUS
 62
     7
 10
100.2116182573
 20
180.2639004149
 30
0.0
 11
83.4616182573
 21
180.2639004149
 31
0.0
  0
LINE
  5
270
  8
0
  6
CONTINUOUS
 62
     7
 10
100.2116182573
 20
183.0639004149
 30
0.0
 11
100.2116182573
 21
180.2639004149
 31
0.0
  0
LINE
  5
271
  8
0
  6
CONTINUOUS
 62
     7
 10
110.2116182573
 20
183.0639004149
 30
0.0
 11
106.7116182573
 21
183.0639004149
 31
0.0
  0
LINE
  5
272
  8
0
  6
CONTINUOUS
 62
     7
 10
110.2116182573
 20
180.2639004149
 30
0.0
 11
110.2116182573
 21
183.0639004149
 31
0.0
  0
LINE
  5
273
  8
0
  6
CONTINUOUS
 62
     7
 10
126.9616182573
 20
180.2639004149
 30
0.0
 11
110.2116182573
 21
180.2639004149
 31
0.0
  0
LINE
  5
274
  8
0
  6
CONTINUOUS
 62
     7
 10
126.9616182573
 20
183.0639004149
 30
0.0
 11
126.9616182573
 21
180.2639004149
 31
0.0
  0
LINE
  5
275
  8
0
  6
CONTINUOUS
 62
     7
 10
136.9616182573
 20
183.0639004149
 30
0.0
 11
126.9616182573
 21
183.0639004149
 31
0.0
  0
LINE
  5
276
  8
0
  6
CONTINUOUS
 62
     7
 10
136.9616182573
 20
180.2639004149
 30
0.0
 11
136.9616182573
 21
183.0639004149
 31
0.0
  0
LINE
  5
277
  8
0
  6
CONTINUOUS
 62
     7
 10
146.9616182573
 20
180.2639004149
 30
0.0
 11
136.9616182573
 21
180.2639004149
 31
0.0
  0
LINE
  5
278
  8
0
  6
CONTINUOUS
 62
     7
 10
146.9616182573
 20
183.0639004149
 30
0.0
 11
146.9616182573
 21
180.2639004149
 31
0.0
  0
LINE
  5
279
  8
0
  6
CONTINUOUS
 62
     7
 10
156.9616182573
 20
183.0639004149
 30
0.0
 11
146.9616182573
 21
183.0639004149
 31
0.0
  0
LINE
  5
27A
  8
0
  6
CONTINUOUS
 62
     7
 10
156.9616182573
 20
180.2639004149
 30
0.0
 11
156.9616182573
 21
183.0639004149
 31
0.0
  0
LINE
  5
27B
  8
0
  6
CONTINUOUS
 62
     7
 10
166.9616182573
 20
180.2639004149
 30
0.0
 11
156.9616182573
 21
180.2639004149
 31
0.0
  0
LINE
  5
27C
  8
0
  6
CONTINUOUS
 62
     7
 10
166.9616182573
 20
175.2639004149
 30
0.0
 11
166.9616182573
 21
180.2639004149
 31
0.0
  0
LINE
  5
27D
  8
0
  6
CONTINUOUS
 62
     7
 10
163.9616182573
 20
175.2639004149
 30
0.0
 11
166.9616182573
 21
175.2639004149
 31
0.0
  0
LINE
  5
27E
  8
0
  6
CONTINUOUS
 62
     7
 10
163.9616182573
 20
170.2639004149
 30
0.0
 11
163.9616182573
 21
175.2639004149
 31
0.0
  0
LINE
  5
27F
  8
0
  6
CONTINUOUS
 62
     7
 10
166.9616182573
 20
170.2639004149
 30
0.0
 11
163.9616182573
 21
170.2639004149
 31
0.0
  0
LINE
  5
280
  8
0
  6
CONTINUOUS
 62
     7
 10
166.9616182573
 20
160.2639004149
 30
0.0
 11
166.9616182573
 21
170.2639004149
 31
0.0
  0
LINE
  5
281
  8
0
  6
CONTINUOUS
 62
     7
 10
163.9616182573
 20
160.2639004149
 30
0.0
 11
166.9616182573
 21
160.2639004149
 31
0.0
  0
LINE
  5
282
  8
0
  6
CONTINUOUS
 62
     7
 10
163.9616182573
 20
155.2639004149
 30
0.0
 11
163.9616182573
 21
160.2639004149
 31
0.0
  0
LINE
  5
283
  8
0
  6
CONTINUOUS
 62
     7
 10
166.9616182573
 20
155.2639004149
 30
0.0
 11
163.9616182573
 21
155.2639004149
 31
0.0
  0
LINE
  5
284
  8
0
  6
CONTINUOUS
 62
     7
 10
166.9616182573
 20
150.2639004149
 30
0.0
 11
166.9616182573
 21
155.2639004149
 31
0.0
  0
LINE
  5
285
  8
0
  6
CONTINUOUS
 62
     7
 10
156.9616182573
 20
150.2639004149
 30
0.0
 11
166.9616182573
 21
150.2639004149
 31
0.0
  0
LINE
  5
286
  8
0
  6
CONTINUOUS
 62
     7
 10
156.9616182573
 20
147.4639004149
 30
0.0
 11
156.9616182573
 21
150.2639004149
 31
0.0
  0
LINE
  5
287
  8
0
  6
CONTINUOUS
 62
     7
 10
146.9616182573
 20
147.4639004149
 30
0.0
 11
156.9616182573
 21
147.4639004149
 31
0.0
  0
LINE
  5
288
  8
0
  6
CONTINUOUS
 62
     7
 10
146.9616182573
 20
150.2639004149
 30
0.0
 11
146.9616182573
 21
147.4639004149
 31
0.0
  0
LINE
  5
289
  8
0
  6
CONTINUOUS
 62
     7
 10
136.9616182573
 20
150.2639004149
 30
0.0
 11
146.9616182573
 21
150.2639004149
 31
0.0
  0
LINE
  5
28A
  8
0
  6
CONTINUOUS
 62
     7
 10
136.9616182573
 20
147.4639004149
 30
0.0
 11
136.9616182573
 21
150.2639004149
 31
0.0
  0
LINE
  5
28B
  8
0
  6
CONTINUOUS
 62
     7
 10
126.9616182573
 20
147.4639004149
 30
0.0
 11
136.9616182573
 21
147.4639004149
 31
0.0
  0
LINE
  5
28C
  8
0
  6
CONTINUOUS
 62
     7
 10
126.9616182573
 20
150.2639004149
 30
0.0
 11
126.9616182573
 21
147.4639004149
 31
0.0
  0
LINE
  5
28D
  8
0
  6
CONTINUOUS
 62
     7
 10
110.2116182573
 20
150.2639004149
 30
0.0
 11
126.9616182573
 21
150.2639004149
 31
0.0
  0
LINE
  5
28E
  8
0
  6
CONTINUOUS
 62
     7
 10
110.2116182573
 20
147.4639004149
 30
0.0
 11
110.2116182573
 21
150.2639004149
 31
0.0
  0
LINE
  5
28F
  8
0
  6
CONTINUOUS
 62
     7
 10
106.7116182573
 20
147.4639004149
 30
0.0
 11
110.2116182573
 21
147.4639004149
 31
0.0
  0
LINE
  5
290
  8
0
  6
CONTINUOUS
 62
     7
 10
100.2116182573
 20
150.2639004149
 30
0.0
 11
100.2116182573
 21
147.4639004149
 31
0.0
  0
LINE
  5
291
  8
0
  6
CONTINUOUS
 62
     7
 10
83.4616182573
 20
150.2639004149
 30
0.0
 11
100.2116182573
 21
150.2639004149
 31
0.0
  0
LINE
  5
292
  8
0
  6
CONTINUOUS
 62
     7
 10
83.4616182573
 20
147.4639004149
 30
0.0
 11
83.4616182573
 21
150.2639004149
 31
0.0
  0
LINE
  5
293
  8
0
  6
CONTINUOUS
 62
     7
 10
73.4616182573
 20
147.4639004149
 30
0.0
 11
83.4616182573
 21
147.4639004149
 31
0.0
  0
LINE
  5
294
  8
0
  6
CONTINUOUS
 62
     7
 10
73.4616182573
 20
150.2639004149
 30
0.0
 11
73.4616182573
 21
147.4639004149
 31
0.0
  0
LINE
  5
295
  8
0
  6
CONTINUOUS
 62
     7
 10
63.4616182573
 20
150.2639004149
 30
0.0
 11
73.4616182573
 21
150.2639004149
 31
0.0
  0
LINE
  5
296
  8
0
  6
CONTINUOUS
 62
     7
 10
63.4616182573
 20
147.4639004149
 30
0.0
 11
63.4616182573
 21
150.2639004149
 31
0.0
  0
LINE
  5
297
  8
0
  6
CONTINUOUS
 62
     7
 10
53.4616182573
 20
147.4639004149
 30
0.0
 11
63.4616182573
 21
147.4639004149
 31
0.0
  0
LINE
  5
298
  8
0
  6
CONTINUOUS
 62
     7
 10
53.4616182573
 20
150.2639004149
 30
0.0
 11
53.4616182573
 21
147.4639004149
 31
0.0
  0
LINE
  5
299
  8
0
  6
CONTINUOUS
 62
     7
 10
43.4616182573
 20
150.2639004149
 30
0.0
 11
53.4616182573
 21
150.2639004149
 31
0.0
  0
LINE
  5
29A
  8
0
  6
CONTINUOUS
 62
     7
 10
43.4616182573
 20
155.2639004149
 30
0.0
 11
43.4616182573
 21
150.2639004149
 31
0.0
  0
LINE
  5
29B
  8
0
  6
CONTINUOUS
 62
     7
 10
100.2116182573
 20
147.4639004149
 30
0.0
 11
103.7116182573
 21
147.4639004149
 31
0.0
  0
LINE
  5
29C
  8
0
  6
CONTINUOUS
 62
     7
 10
103.7116182573
 20
183.0639004149
 30
0.0
 11
100.2116182573
 21
183.0639004149
 31
0.0
  0
CIRCLE
  5
29D
  8
0
  6
CONTINUOUS
 62
     7
 10
156.468879668
 20
115.7838174274
 30
0.0
 40
1.0
  0
LINE
  5
29E
  8
0
  6
CONTINUOUS
 62
     7
 10
161.468879668
 20
115.7838174274
 30
0.0
 11
161.468879668
 21
124.7838174274
 31
0.0
  0
ARC
  5
29F
  8
0
  6
CONTINUOUS
 62
     7
 10
158.468879668
 20
115.7838174274
 30
0.0
 40
3.0
 50
270.0
 51
0.0
  0
LINE
  5
2A0
  8
0
  6
CONTINUOUS
 62
     7
 10
156.468879668
 20
112.7838174274
 30
0.0
 11
158.468879668
 21
112.7838174274
 31
0.0
  0
ARC
  5
2A1
  8
0
  6
CONTINUOUS
 62
     7
 10
156.468879668
 20
115.7838174274
 30
0.0
 40
3.0
 50
180.0
 51
270.0
  0
LINE
  5
2A2
  8
0
  6
CONTINUOUS
 62
     7
 10
153.468879668
 20
117.7838174274
 30
0.0
 11
153.468879668
 21
115.7838174274
 31
0.0
  0
ARC
  5
2A3
  8
0
  6
CONTINUOUS
 62
     7
 10
150.468879668
 20
117.7838174274
 30
0.0
 40
3.0
 50
0.0
 51
90.0
  0
LINE
  5
2A4
  8
0
  6
CONTINUOUS
 62
     7
 10
92.618879668
 20
120.7838174274
 30
0.0
 11
150.468879668
 21
120.7838174274
 31
0.0
  0
ARC
  5
2A5
  8
0
  6
CONTINUOUS
 62
     7
 10
92.618879668
 20
117.7838174274
 30
0.0
 40
3.0
 50
90.0
 51
180.0
  0
LINE
  5
2A6
  8
0
  6
CONTINUOUS
 62
     7
 10
89.618879668
 20
115.7838174274
 30
0.0
 11
89.618879668
 21
117.7838174274
 31
0.0
  0
ARC
  5
2A7
  8
0
  6
CONTINUOUS
 62
     7
 10
86.618879668
 20
115.7838174274
 30
0.0
 40
3.0
 50
270.0
 51
0.0
  0
LINE
  5
2A8
  8
0
  6
CONTINUOUS
 62
     7
 10
84.468879668
 20
112.7838174274
 30
0.0
 11
86.618879668
 21
112.7838174274
 31
0.0
  0
ARC
  5
2A9
  8
0
  6
CONTINUOUS
 62
     7
 10
84.468879668
 20
115.7838174274
 30
0.0
 40
3.0
 50
180.0
 51
270.0
  0
LINE
  5
2AA
  8
0
  6
CONTINUOUS
 62
     7
 10
81.468879668
 20
124.7838174274
 30
0.0
 11
81.468879668
 21
115.7838174274
 31
0.0
  0
ARC
  5
2AB
  8
0
  6
CONTINUOUS
 62
     7
 10
84.468879668
 20
124.7838174274
 30
0.0
 40
3.0
 50
90.0
 51
180.0
  0
LINE
  5
2AC
  8
0
  6
CONTINUOUS
 62
     7
 10
158.468879668
 20
127.7838174274
 30
0.0
 11
84.468879668
 21
127.7838174274
 31
0.0
  0
ARC
  5
2AD
  8
0
  6
CONTINUOUS
 62
     7
 10
158.468879668
 20
124.7838174274
 30
0.0
 40
3.0
 50
0.0
 51
90.0
  0
CIRCLE
  5
2AE
  8
0
  6
CONTINUOUS
 62
     7
 10
86.618879668
 20
115.7838174274
 30
0.0
 40
1.0
  0
CIRCLE
  5
2AF
  8
0
  6
CONTINUOUS
 62
     7
 10
147.3950207469
 20
142.5074688797
 30
0.0
 40
1.0
  0
LINE
  5
2B0
  8
0
  6
CONTINUOUS
 62
     7
 10
149.3950207469
 20
130.5074688797
 30
0.0
 11
95.3950207469
 21
130.5074688797
 31
0.0
  0
ARC
  5
2B1
  8
0
  6
CONTINUOUS
 62
     7
 10
95.3950207469
 20
133.5074688797
 30
0.0
 40
3.0
 50
180.0
 51
270.0
  0
LINE
  5
2B2
  8
0
  6
CONTINUOUS
 62
     7
 10
92.3950207469
 20
133.5074688797
 30
0.0
 11
92.3950207469
 21
142.5074688797
 31
0.0
  0
ARC
  5
2B3
  8
0
  6
CONTINUOUS
 62
     7
 10
95.3950207469
 20
142.5074688797
 30
0.0
 40
3.0
 50
90.0
 51
180.0
  0
LINE
  5
2B4
  8
0
  6
CONTINUOUS
 62
     7
 10
95.3950207469
 20
145.5074688797
 30
0.0
 11
96.5950207469
 21
145.5074688797
 31
0.0
  0
ARC
  5
2B5
  8
0
  6
CONTINUOUS
 62
     7
 10
96.5950207469
 20
142.5074688797
 30
0.0
 40
3.000000000000014
 50
0.0
 51
90.0
  0
LINE
  5
2B6
  8
0
  6
CONTINUOUS
 62
     7
 10
99.5950207469
 20
142.5074688797
 30
0.0
 11
99.5950207469
 21
140.5074688797
 31
0.0
  0
ARC
  5
2B7
  8
0
  6
CONTINUOUS
 62
     7
 10
102.5950207469
 20
140.5074688797
 30
0.0
 40
3.0
 50
180.0
 51
270.0
  0
LINE
  5
2B8
  8
0
  6
CONTINUOUS
 62
     7
 10
102.5950207469
 20
137.5074688797
 30
0.0
 11
141.3950207469
 21
137.5074688797
 31
0.0
  0
ARC
  5
2B9
  8
0
  6
CONTINUOUS
 62
     7
 10
141.3950207469
 20
140.5074688797
 30
0.0
 40
3.0
 50
270.0
 51
0.0
  0
LINE
  5
2BA
  8
0
  6
CONTINUOUS
 62
     7
 10
144.3950207469
 20
140.5074688797
 30
0.0
 11
144.3950207469
 21
142.5074688797
 31
0.0
  0
ARC
  5
2BB
  8
0
  6
CONTINUOUS
 62
     7
 10
147.3950207469
 20
142.5074688797
 30
0.0
 40
3.0
 50
90.0
 51
180.0
  0
LINE
  5
2BC
  8
0
  6
CONTINUOUS
 62
     7
 10
147.3950207469
 20
145.5074688797
 30
0.0
 11
149.3950207469
 21
145.5074688797
 31
0.0
  0
ARC
  5
2BD
  8
0
  6
CONTINUOUS
 62
     7
 10
149.3950207469
 20
142.5074688797
 30
0.0
 40
3.0
 50
0.0
 51
90.0
  0
LINE
  5
2BE
  8
0
  6
CONTINUOUS
 62
     7
 10
152.3950207469
 20
142.5074688797
 30
0.0
 11
152.3950207469
 21
133.5074688797
 31
0.0
  0
CIRCLE
  5
2BF
  8
0
  6
CONTINUOUS
 62
     7
 10
96.5950207469
 20
142.5074688797
 30
0.0
 40
1.0
  0
ARC
  5
2C0
  8
0
  6
CONTINUOUS
 62
     7
 10
149.3950207469
 20
133.5074688797
 30
0.0
 40
3.0
 50
270.0
 51
0.0
  0
CIRCLE
  5
2C1
  8
0
  6
CONTINUOUS
 62
     7
 10
171.7882614108
 20
308.0639004149
 30
0.0
 40
1.140000000000043
  0
ARC
  5
2C2
  8
0
  6
CONTINUOUS
 62
     7
 10
165.0572614108
 20
308.0639004149
 30
0.0
 40
5.000000000000012
 50
56.3878647267
 51
123.6121352733
  0
ARC
  5
2C3
  8
0
  6
CONTINUOUS
 62
     7
 10
172.2536447601
 20
318.8903525896
 30
0.0
 40
7.999999999999996
 50
236.3878647267
 51
266.6650545138
  0
ARC
  5
2C4
  8
0
  6
CONTINUOUS
 62
     7
 10
171.7882614108
 20
308.0639004149
 30
0.0
 40
2.840000000000032
 50
270.0
 51
90.0
  0
ARC
  5
2C5
  8
0
  6
CONTINUOUS
 62
     7
 10
172.2536447601
 20
297.2374482403
 30
0.0
 40
7.999999999999975
 50
93.3349454862
 51
123.6121352733
  0
ARC
  5
2C6
  8
0
  6
CONTINUOUS
 62
     7
 10
165.0572614108
 20
308.0639004149
 30
0.0
 40
5.000000000000012
 50
236.3878647267
 51
303.6121352733
  0
ARC
  5
2C7
  8
0
  6
CONTINUOUS
 62
     7
 10
157.8608780615
 20
297.2374482403
 30
0.0
 40
7.999999999999977
 50
56.3878647267
 51
86.6650545138
  0
ARC
  5
2C8
  8
0
  6
CONTINUOUS
 62
     7
 10
158.3262614108
 20
308.0639004149
 30
0.0
 40
2.840000000000032
 50
90.0
 51
270.0
  0
ARC
  5
2C9
  8
0
  6
CONTINUOUS
 62
     7
 10
157.8608780615
 20
318.8903525896
 30
0.0
 40
8.000000000000043
 50
273.3349454862
 51
303.6121352733
  0
CIRCLE
  5
2CA
  8
0
  6
CONTINUOUS
 62
     7
 10
158.3262614108
 20
308.0639004149
 30
0.0
 40
1.140000000000043
  0
CIRCLE
  5
2CB
  8
0
  6
CONTINUOUS
 62
     7
 10
57.4297551867
 20
310.4340248963
 30
0.0
 40
1.139999999999986
  0
ARC
  5
2CC
  8
0
  6
CONTINUOUS
 62
     7
 10
50.6987551867
 20
310.4340248963
 30
0.0
 40
5.000000000000017
 50
56.3878647267
 51
123.6121352733
  0
ARC
  5
2CD
  8
0
  6
CONTINUOUS
 62
     7
 10
57.895138536
 20
321.2604770709
 30
0.0
 40
7.999999999999976
 50
236.3878647267
 51
266.6650545138
  0
ARC
  5
2CE
  8
0
  6
CONTINUOUS
 62
     7
 10
57.4297551867
 20
310.4340248963
 30
0.0
 40
2.840000000000032
 50
270.0
 51
90.0
  0
ARC
  5
2CF
  8
0
  6
CONTINUOUS
 62
     7
 10
57.895138536
 20
299.6075727216
 30
0.0
 40
7.999999999999992
 50
93.3349454862
 51
123.6121352733
  0
ARC
  5
2D0
  8
0
  6
CONTINUOUS
 62
     7
 10
50.6987551867
 20
310.4340248963
 30
0.0
 40
5.000000000000017
 50
236.3878647267
 51
303.6121352733
  0
ARC
  5
2D1
  8
0
  6
CONTINUOUS
 62
     7
 10
43.5023718375
 20
299.6075727216
 30
0.0
 40
7.999999999999992
 50
56.3878647267
 51
86.6650545138
  0
ARC
  5
2D2
  8
0
  6
CONTINUOUS
 62
     7
 10
43.9677551867
 20
310.4340248963
 30
0.0
 40
2.840000000000032
 50
90.0
 51
270.0
  0
ARC
  5
2D3
  8
0
  6
CONTINUOUS
 62
     7
 10
43.5023718375
 20
321.2604770709
 30
0.0
 40
8.000000000000032
 50
273.3349454862
 51
303.6121352733
  0
CIRCLE
  5
2D4
  8
0
  6
CONTINUOUS
 62
     7
 10
43.9677551867
 20
310.4340248963
 30
0.0
 40
1.139999999999986
  0
CIRCLE
  5
2D5
  8
0
  6
CONTINUOUS
 62
     7
 10
252.2
 20
158.4199170124
 30
0.0
 40
1.0
  0
LINE
  5
2D6
  8
0
  6
CONTINUOUS
 62
     7
 10
257.2
 20
158.4199170124
 30
0.0
 11
257.2
 21
167.4199170124
 31
0.0
  0
ARC
  5
2D7
  8
0
  6
CONTINUOUS
 62
     7
 10
254.2
 20
158.4199170124
 30
0.0
 40
3.0
 50
270.0
 51
0.0
  0
LINE
  5
2D8
  8
0
  6
CONTINUOUS
 62
     7
 10
252.2
 20
155.4199170124
 30
0.0
 11
254.2
 21
155.4199170124
 31
0.0
  0
ARC
  5
2D9
  8
0
  6
CONTINUOUS
 62
     7
 10
252.2
 20
158.4199170124
 30
0.0
 40
3.0
 50
180.0
 51
270.0
  0
LINE
  5
2DA
  8
0
  6
CONTINUOUS
 62
     7
 10
249.2
 20
160.4199170124
 30
0.0
 11
249.2
 21
158.4199170124
 31
0.0
  0
ARC
  5
2DB
  8
0
  6
CONTINUOUS
 62
     7
 10
246.2
 20
160.4199170124
 30
0.0
 40
3.000000000000028
 50
0.0
 51
90.0
  0
LINE
  5
2DC
  8
0
  6
CONTINUOUS
 62
     7
 10
188.35
 20
163.4199170124
 30
0.0
 11
246.2
 21
163.4199170124
 31
0.0
  0
ARC
  5
2DD
  8
0
  6
CONTINUOUS
 62
     7
 10
188.35
 20
160.4199170124
 30
0.0
 40
3.000000000000028
 50
90.0
 51
180.0
  0
LINE
  5
2DE
  8
0
  6
CONTINUOUS
 62
     7
 10
185.35
 20
158.4199170124
 30
0.0
 11
185.35
 21
160.4199170124
 31
0.0
  0
ARC
  5
2DF
  8
0
  6
CONTINUOUS
 62
     7
 10
182.35
 20
158.4199170124
 30
0.0
 40
3.0
 50
270.0
 51
0.0
  0
LINE
  5
2E0
  8
0
  6
CONTINUOUS
 62
     7
 10
180.2
 20
155.4199170124
 30
0.0
 11
182.35
 21
155.4199170124
 31
0.0
  0
ARC
  5
2E1
  8
0
  6
CONTINUOUS
 62
     7
 10
180.2
 20
158.4199170124
 30
0.0
 40
3.0
 50
180.0
 51
270.0
  0
LINE
  5
2E2
  8
0
  6
CONTINUOUS
 62
     7
 10
177.2
 20
167.4199170124
 30
0.0
 11
177.2
 21
158.4199170124
 31
0.0
  0
ARC
  5
2E3
  8
0
  6
CONTINUOUS
 62
     7
 10
180.2
 20
167.4199170124
 30
0.0
 40
3.0
 50
90.0
 51
180.0
  0
LINE
  5
2E4
  8
0
  6
CONTINUOUS
 62
     7
 10
254.2
 20
170.4199170124
 30
0.0
 11
180.2
 21
170.4199170124
 31
0.0
  0
ARC
  5
2E5
  8
0
  6
CONTINUOUS
 62
     7
 10
254.2
 20
167.4199170124
 30
0.0
 40
3.0
 50
0.0
 51
90.0
  0
CIRCLE
  5
2E6
  8
0
  6
CONTINUOUS
 62
     7
 10
182.35
 20
158.4199170124
 30
0.0
 40
1.0
  0
CIRCLE
  5
2E7
  8
0
  6
CONTINUOUS
 62
     7
 10
238.3858921162
 20
189.8838174274
 30
0.0
 40
1.0
  0
LINE
  5
2E8
  8
0
  6
CONTINUOUS
 62
     7
 10
240.3858921162
 20
177.8838174274
 30
0.0
 11
186.3858921162
 21
177.8838174274
 31
0.0
  0
ARC
  5
2E9
  8
0
  6
CONTINUOUS
 62
     7
 10
186.3858921162
 20
180.8838174274
 30
0.0
 40
3.0
 50
180.0
 51
270.0
  0
LINE
  5
2EA
  8
0
  6
CONTINUOUS
 62
     7
 10
183.3858921162
 20
180.8838174274
 30
0.0
 11
183.3858921162
 21
189.8838174274
 31
0.0
  0
ARC
  5
2EB
  8
0
  6
CONTINUOUS
 62
     7
 10
186.3858921162
 20
189.8838174274
 30
0.0
 40
3.000000000000028
 50
90.0
 51
180.0
  0
LINE
  5
2EC
  8
0
  6
CONTINUOUS
 62
     7
 10
186.3858921162
 20
192.8838174274
 30
0.0
 11
187.5858921162
 21
192.8838174274
 31
0.0
  0
ARC
  5
2ED
  8
0
  6
CONTINUOUS
 62
     7
 10
187.5858921162
 20
189.8838174274
 30
0.0
 40
3.000000000000028
 50
0.0
 51
90.0
  0
LINE
  5
2EE
  8
0
  6
CONTINUOUS
 62
     7
 10
190.5858921162
 20
189.8838174274
 30
0.0
 11
190.5858921162
 21
187.8838174274
 31
0.0
  0
ARC
  5
2EF
  8
0
  6
CONTINUOUS
 62
     7
 10
193.5858921162
 20
187.8838174274
 30
0.0
 40
3.0
 50
180.0
 51
270.0
  0
LINE
  5
2F0
  8
0
  6
CONTINUOUS
 62
     7
 10
193.5858921162
 20
184.8838174274
 30
0.0
 11
232.3858921162
 21
184.8838174274
 31
0.0
  0
ARC
  5
2F1
  8
0
  6
CONTINUOUS
 62
     7
 10
232.3858921162
 20
187.8838174274
 30
0.0
 40
3.000000000000028
 50
270.0
 51
0.0
  0
LINE
  5
2F2
  8
0
  6
CONTINUOUS
 62
     7
 10
235.3858921162
 20
187.8838174274
 30
0.0
 11
235.3858921162
 21
189.8838174274
 31
0.0
  0
ARC
  5
2F3
  8
0
  6
CONTINUOUS
 62
     7
 10
238.3858921162
 20
189.8838174274
 30
0.0
 40
3.000000000000028
 50
90.0
 51
180.0
  0
LINE
  5
2F4
  8
0
  6
CONTINUOUS
 62
     7
 10
238.3858921162
 20
192.8838174274
 30
0.0
 11
240.3858921162
 21
192.8838174274
 31
0.0
  0
ARC
  5
2F5
  8
0
  6
CONTINUOUS
 62
     7
 10
240.3858921162
 20
189.8838174274
 30
0.0
 40
3.000000000000028
 50
0.0
 51
90.0
  0
LINE
  5
2F6
  8
0
  6
CONTINUOUS
 62
     7
 10
243.3858921162
 20
189.8838174274
 30
0.0
 11
243.3858921162
 21
180.8838174274
 31
0.0
  0
CIRCLE
  5
2F7
  8
0
  6
CONTINUOUS
 62
     7
 10
187.5858921162
 20
189.8838174274
 30
0.0
 40
1.0
  0
ARC
  5
2F8
  8
0
  6
CONTINUOUS
 62
     7
 10
240.3858921162
 20
180.8838174274
 30
0.0
 40
3.0
 50
270.0
 51
0.0
  0
TEXT
  5
2F9
  8
0
  6
CONTINUOUS
 62
     7
 10
0.0
 20
13.4657876099
 30
0.0
 40
7.266
  1
SolidWorks Educational Edition.
 41
0.6774193548
 11
0.0
 21
10.899
 31
0.0
 73
     1
  0
TEXT
  5
2FA
  8
0
  6
CONTINUOUS
 62
     7
 10
0.0
 20
2.5667876099
 30
0.0
 40
7.266
  1
For Instructional Use Only.
 41
0.6611111111
 11
0.0
 21
0.0
 31
0.0
 73
     1
  0
ENDSEC
  0
EOF
